<svg xmlns="http://www.w3.org/2000/svg" xmlns:xlink="http://www.w3.org/1999/xlink" xmlns:lucid="lucid" width="1420" height="745"><g transform="translate(-120 -40)" lucid:page-tab-id="0_0"><path d="M0 0h1760v1360H0z" fill="#fff"/><path d="M847.63 98.18c0 10.04-7.9 18.18-17.63 18.18-9.74 0-17.63-8.14-17.63-18.18S820.27 80 830 80c9.74 0 17.63 8.14 17.63 18.18z" stroke="#3a414a" fill="#fff"/><use xlink:href="#a" transform="matrix(1,0,0,1,817.3684210526316,84.99999999999999) translate(6.3321604938271605 19.46527777777778)"/><path d="M583.16 290.9c0 10.05-7.9 18.2-17.63 18.2-9.74 0-17.64-8.15-17.64-18.2 0-10.03 7.9-18.17 17.63-18.17 9.73 0 17.63 8.14 17.63 18.18z" stroke="#3a414a" fill="#fff"/><use xlink:href="#b" transform="matrix(1,0,0,1,552.8947368421051,277.7272727272727) translate(6.3321604938271605 19.46527777777778)"/><path d="M715.4 290.9c0 10.05-7.9 18.2-17.64 18.2-9.73 0-17.63-8.15-17.63-18.2 0-10.03 7.9-18.17 17.63-18.17 9.74 0 17.63 8.14 17.63 18.18z" stroke="#3a414a" fill="#fff"/><use xlink:href="#c" transform="matrix(1,0,0,1,685.1315789473686,277.7272727272727) translate(6.3321604938271605 19.46527777777778)"/><path d="M847.63 290.9c0 10.05-7.9 18.2-17.63 18.2-9.74 0-17.63-8.15-17.63-18.2 0-10.03 7.9-18.17 17.63-18.17 9.74 0 17.63 8.14 17.63 18.18z" stroke="#3a414a" fill="#fff"/><use xlink:href="#d" transform="matrix(1,0,0,1,817.3684210526316,277.7272727272727) translate(6.3321604938271605 19.46527777777778)"/><path d="M1112.1 290.9c0 10.05-7.9 18.2-17.63 18.2-9.73 0-17.63-8.15-17.63-18.2 0-10.03 7.9-18.17 17.63-18.17 9.74 0 17.64 8.14 17.64 18.18z" stroke="#3a414a" fill="#fff"/><use xlink:href="#e" transform="matrix(1,0,0,1,1081.8421052631575,277.7272727272727) translate(6.3321604938271605 19.46527777777778)"/><path d="M979.87 290.9c0 10.05-7.9 18.2-17.63 18.2-9.74 0-17.63-8.15-17.63-18.2 0-10.03 7.9-18.17 17.64-18.17 9.73 0 17.63 8.14 17.63 18.18z" stroke="#3a414a" fill="#fff"/><use xlink:href="#f" transform="matrix(1,0,0,1,949.6052631578946,277.7272727272727) translate(6.3321604938271605 19.46527777777778)"/><path d="M301.05 483.64c0 10.04-7.9 18.18-17.63 18.18-9.74 0-17.63-8.14-17.63-18.18 0-10.05 7.88-18.2 17.62-18.2 9.74 0 17.63 8.15 17.63 18.2z" stroke="#3a414a" fill="#fff"/><use xlink:href="#g" transform="matrix(1,0,0,1,270.7894736842106,470.4545454545454) translate(6.3321604938271605 19.46527777777778)"/><path d="M1395.97 483.64c0 10.04-7.9 18.18-17.63 18.18-9.74 0-17.63-8.14-17.63-18.18 0-10.05 7.9-18.2 17.64-18.2s17.63 8.15 17.63 18.2z" stroke="#3a414a" fill="#fff"/><use xlink:href="#h" transform="matrix(1,0,0,1,1365.7105263157894,470.4545454545454) translate(0.6543209876543212 17.944444444444443)"/><path d="M1274.32 483.64c0 10.04-7.9 18.18-17.64 18.18-9.73 0-17.63-8.14-17.63-18.18 0-10.05 7.9-18.2 17.63-18.2 9.74 0 17.64 8.15 17.64 18.2z" stroke="#3a414a" fill="#fff"/><use xlink:href="#i" transform="matrix(1,0,0,1,1244.0526315789475,470.4545454545454) translate(0.6543209876543212 17.944444444444443)"/><path d="M1152.66 483.64c0 10.04-7.9 18.18-17.63 18.18-9.74 0-17.64-8.14-17.64-18.18 0-10.05 7.9-18.2 17.63-18.2 9.73 0 17.63 8.15 17.63 18.2z" stroke="#3a414a" fill="#fff"/><use xlink:href="#j" transform="matrix(1,0,0,1,1122.3947368421054,470.4545454545454) translate(0.6543209876543212 17.944444444444443)"/><path d="M422.7 483.64c0 10.04-7.88 18.18-17.62 18.18-9.74 0-17.63-8.14-17.63-18.18 0-10.05 7.9-18.2 17.63-18.2 9.74 0 17.63 8.15 17.63 18.2z" stroke="#3a414a" fill="#fff"/><use xlink:href="#k" transform="matrix(1,0,0,1,392.4473684210527,470.4545454545454) translate(6.3321604938271605 19.46527777777778)"/><path d="M544.37 483.64c0 10.04-7.9 18.18-17.63 18.18-9.74 0-17.63-8.14-17.63-18.18 0-10.05 7.9-18.2 17.64-18.2 9.73 0 17.63 8.15 17.63 18.2z" stroke="#3a414a" fill="#fff"/><use xlink:href="#l" transform="matrix(1,0,0,1,514.1052631578945,470.4545454545454) translate(6.3321604938271605 19.46527777777778)"/><path d="M666.03 483.64c0 10.04-7.9 18.18-17.64 18.18s-17.64-8.14-17.64-18.18c0-10.05 7.9-18.2 17.63-18.2 9.73 0 17.63 8.15 17.63 18.2z" stroke="#3a414a" fill="#fff"/><use xlink:href="#m" transform="matrix(1,0,0,1,635.7631578947369,470.4545454545454) translate(6.3321604938271605 19.46527777777778)"/><path d="M787.68 483.64c0 10.04-7.9 18.18-17.63 18.18-9.74 0-17.63-8.14-17.63-18.18 0-10.05 7.9-18.2 17.63-18.2 9.74 0 17.63 8.15 17.63 18.2z" stroke="#3a414a" fill="#fff"/><use xlink:href="#n" transform="matrix(1,0,0,1,757.4210526315788,470.4545454545454) translate(0.6543209876543212 17.944444444444443)"/><path d="M1031 483.64c0 10.04-7.9 18.18-17.63 18.18-9.74 0-17.63-8.14-17.63-18.18 0-10.05 7.9-18.2 17.63-18.2 9.74 0 17.63 8.15 17.63 18.2z" stroke="#3a414a" fill="#fff"/><use xlink:href="#o" transform="matrix(1,0,0,1,1000.736842105263,470.4545454545454) translate(0.6543209876543212 17.944444444444443)"/><path d="M909.34 483.64c0 10.04-7.9 18.18-17.63 18.18-9.73 0-17.62-8.14-17.62-18.18 0-10.05 7.9-18.2 17.63-18.2 9.75 0 17.64 8.15 17.64 18.2z" stroke="#3a414a" fill="#fff"/><use xlink:href="#p" transform="matrix(1,0,0,1,879.078947368421,470.4545454545454) translate(1.4876543209876552 17.944444444444443)"/><path d="M300.17 680c0 10.04-7.9 18.18-17.63 18.18-9.74 0-17.63-8.14-17.63-18.18s7.9-18.18 17.64-18.18 17.63 8.14 17.63 18.18z" stroke="#3a414a" fill="#fff"/><use xlink:href="#q" transform="matrix(1,0,0,1,269.90789473684214,666.8181818181819) translate(0.6543209876543212 17.944444444444443)"/><path d="M1395.1 680c0 10.04-7.9 18.18-17.64 18.18s-17.63-8.14-17.63-18.18 7.9-18.18 17.63-18.18c9.74 0 17.63 8.14 17.63 18.18z" stroke="#3a414a" fill="#fff"/><use xlink:href="#r" transform="matrix(1,0,0,1,1364.8289473684213,666.8181818181819) translate(0.6543209876543212 17.944444444444443)"/><path d="M1273.43 680c0 10.04-7.9 18.18-17.63 18.18-9.74 0-17.63-8.14-17.63-18.18s7.9-18.18 17.63-18.18c9.74 0 17.63 8.14 17.63 18.18z" stroke="#3a414a" fill="#fff"/><use xlink:href="#s" transform="matrix(1,0,0,1,1243.171052631579,666.8181818181819) translate(0.6543209876543212 17.944444444444443)"/><path d="M1151.78 680c0 10.04-7.9 18.18-17.64 18.18-9.73 0-17.63-8.14-17.63-18.18s7.9-18.18 17.64-18.18 17.64 8.14 17.64 18.18z" stroke="#3a414a" fill="#fff"/><use xlink:href="#t" transform="matrix(1,0,0,1,1121.513157894737,666.8181818181819) translate(0.6543209876543212 17.944444444444443)"/><path d="M421.83 680c0 10.04-7.9 18.18-17.63 18.18-9.74 0-17.63-8.14-17.63-18.18s7.9-18.18 17.63-18.18c9.74 0 17.63 8.14 17.63 18.18z" stroke="#3a414a" fill="#fff"/><use xlink:href="#u" transform="matrix(1,0,0,1,391.5657894736842,666.8181818181819) translate(0.6543209876543212 17.944444444444443)"/><path d="M543.5 680c0 10.04-7.9 18.18-17.64 18.18s-17.64-8.14-17.64-18.18 7.9-18.18 17.64-18.18c9.73 0 17.63 8.14 17.63 18.18z" stroke="#3a414a" fill="#fff"/><use xlink:href="#v" transform="matrix(1,0,0,1,513.2236842105261,666.8181818181819) translate(0.6543209876543212 17.944444444444443)"/><path d="M665.14 680c0 10.04-7.9 18.18-17.63 18.18-9.72 0-17.62-8.14-17.62-18.18s7.9-18.18 17.63-18.18c9.75 0 17.64 8.14 17.64 18.18z" stroke="#3a414a" fill="#fff"/><use xlink:href="#w" transform="matrix(1,0,0,1,634.8815789473684,666.8181818181819) translate(0.6543209876543212 17.944444444444443)"/><path d="M786.8 680c0 10.04-7.9 18.18-17.63 18.18-9.74 0-17.63-8.14-17.63-18.18s7.9-18.18 17.63-18.18c9.74 0 17.63 8.14 17.63 18.18z" stroke="#3a414a" fill="#fff"/><use xlink:href="#x" transform="matrix(1,0,0,1,756.5394736842104,666.8181818181819) translate(0.6543209876543212 17.944444444444443)"/><path d="M1030.12 680c0 10.04-7.9 18.18-17.63 18.18-9.75 0-17.64-8.14-17.64-18.18s7.9-18.18 17.63-18.18c9.72 0 17.62 8.14 17.62 18.18z" stroke="#3a414a" fill="#fff"/><use xlink:href="#y" transform="matrix(1,0,0,1,999.8552631578949,666.8181818181819) translate(0.6543209876543212 17.944444444444443)"/><path d="M908.46 680c0 10.04-7.9 18.18-17.63 18.18-9.74 0-17.63-8.14-17.63-18.18s7.9-18.18 17.63-18.18c9.74 0 17.63 8.14 17.63 18.18z" stroke="#3a414a" fill="#fff"/><use xlink:href="#z" transform="matrix(1,0,0,1,878.1973684210526,666.8181818181819) translate(0.6543209876543212 17.944444444444443)"/><path d="M692.82 198.03l-126.6 74.37-.52-.86 127.12-74.67zm137-80.48L702.7 192.22v-1.16l126.62-74.37z" stroke="#3a414a" stroke-width=".05" fill="#3a414a"/><path d="M829.8 117.56l-.44-.78.64.1 1.27-.18z" fill="#3a414a"/><path d="M829.8 117.6l-.5-.85.7.1 1.4-.2zm.2-.7l-.6-.1.42.72 1.33-.78z" stroke="#3a414a" stroke-width=".05" fill="#3a414a"/><path d="M566.17 272.3l-.64-.08-1.27.17 1.46-.87z" fill="#3a414a"/><path d="M566.22 272.34l-.7-.1-1.38.2 1.58-.94zm-1.85 0l1.16-.14.6.08-.42-.7z" stroke="#3a414a" stroke-width=".05" fill="#3a414a"/><use xlink:href="#A" transform="matrix(1,0,0,1,692.8248862897985,183.87878769752015) translate(0 14.222222222222223)"/><path d="M742.95 219.9l-44.48 52.27-.76-.65 45.25-53.15zm87.1-102.33l-77.23 90.74v-1.53l76.48-89.85z" stroke="#3a414a" stroke-width=".05" fill="#3a414a"/><path d="M830.05 117.58l-.76-.65.1-.14.6.07.74-.1z" fill="#3a414a"/><path d="M830.05 117.62l-.8-.68.15-.18.6.08.8-.1zm-.05-.73l-.58-.08-.1.1.73.63.63-.75z" stroke="#3a414a" stroke-width=".05" fill="#3a414a"/><path d="M698.48 272.16l-.13.14-.6-.08-.73.1.7-.8z" fill="#3a414a"/><path d="M698.5 272.15l-.14.18-.6-.08-.8.1.75-.88zm-1.4.14l.66-.1.58.07.1-.1-.72-.63z" stroke="#3a414a" stroke-width=".05" fill="#3a414a"/><use xlink:href="#B" transform="matrix(1,0,0,1,742.9466843737066,202.67201134786413) translate(0 14.222222222222223)"/><path d="M830.5 271.72h-1v-44.16h1zm0-65.5h-1v-88.85h1z" stroke="#3a414a" stroke-width=".05" fill="#3a414a"/><path d="M830 116.87l.5-.07v.58h-1v-.58z" fill="#3a414a"/><path d="M830 116.84l.52-.07v.64h-1.04v-.63zm-.48.52h.96v-.53l-.48.06-.48-.07z" stroke="#3a414a" stroke-width=".05" fill="#3a414a"/><path d="M830.5 272.3l-.5-.08-.5.07v-.6h1z" fill="#3a414a"/><path d="M830.52 272.32l-.52-.07-.52.07v-.64h1.04zm-1-.6v.54l.48-.06.48.06v-.53z" stroke="#3a414a" stroke-width=".05" fill="#3a414a"/><use xlink:href="#C" transform="matrix(1,0,0,1,825.0617279030266,206.22531377072008) translate(0 14.222222222222223)"/><path d="M962.3 271.52l-.77.65-60.47-71.05v-1.54zm-71.12-83.55v1.55l-61.24-71.95.76-.65z" stroke="#3a414a" stroke-width=".05" fill="#3a414a"/><path d="M830 116.87l.6-.08.1.13-.75.65-.7-.8z" fill="#3a414a"/><path d="M830 116.84l.6-.08.15.18-.8.68-.75-.88zm-.05.7l.73-.6-.1-.12-.58.07-.68-.1z" stroke="#3a414a" stroke-width=".05" fill="#3a414a"/><path d="M962.98 272.32l-.74-.1-.6.08-.12-.14.77-.65z" fill="#3a414a"/><path d="M963.04 272.35l-.8-.1-.6.08-.15-.18.8-.68zm-1.48-.2l.1.12.58-.07.67.1-.62-.76z" stroke="#3a414a" stroke-width=".05" fill="#3a414a"/><use xlink:href="#D" transform="matrix(1,0,0,1,891.1801494476932,183.87878769752015) translate(0 14.222222222222223)"/><path d="M1094.3 271.54l-.5.86-126.62-74.37v-1.16zm-137-80.48v1.16l-127.12-74.67.5-.86z" stroke="#3a414a" stroke-width=".05" fill="#3a414a"/><path d="M830 116.87l.64-.1-.45.8-1.47-.87z" fill="#3a414a"/><path d="M830 116.84l.7-.1-.5.85-1.6-.94zm.18.68l.42-.7-.6.07-1.15-.16z" stroke="#3a414a" stroke-width=".05" fill="#3a414a"/><path d="M1095.74 272.4l-1.27-.18-.64.1.45-.8z" fill="#3a414a"/><path d="M1095.86 272.43l-1.4-.18-.68.1.5-.85zm-1.98-.15l.6-.08 1.15.15-1.34-.78z" stroke="#3a414a" stroke-width=".05" fill="#3a414a"/><use xlink:href="#E" transform="matrix(1,0,0,1,957.2985705003247,183.87878769752015) translate(0 14.222222222222223)"/><path d="M626.7 291.4h-42.54v-1h42.55zm52.43 0h-42.55v-1h42.55z" stroke="#3a414a" stroke-width=".05" fill="#3a414a"/><path d="M584.17 291.4h-.57l.06-.5-.06-.5h.57z" fill="#3a414a"/><path d="M584.2 291.43h-.63l.07-.52-.07-.52h.63zm-.57-1l.06.48-.07.48h.52v-.95z" stroke="#3a414a" stroke-width=".05" fill="#3a414a"/><path d="M679.63 290.9l.06.5h-.6v-1h.6z" fill="#3a414a"/><path d="M679.65 290.9l.07.53h-.63v-1.05h.62zm-.5-.47v.95h.5l-.05-.47.06-.47z" stroke="#3a414a" stroke-width=".05" fill="#3a414a"/><use xlink:href="#F" transform="matrix(1,0,0,1,626.7064653135917,280.2424242424242) translate(0 14.222222222222223)"/><path d="M758.94 291.4H716.4v-1h42.54zm52.42 0h-42.54v-1h42.54z" stroke="#3a414a" stroke-width=".05" fill="#3a414a"/><path d="M716.4 291.4h-.57l.07-.5-.07-.5h.58z" fill="#3a414a"/><path d="M716.44 291.43h-.63l.07-.52-.06-.52h.64zm-.58-1l.06.48-.06.48h.53v-.95z" stroke="#3a414a" stroke-width=".05" fill="#3a414a"/><path d="M811.86 290.9l.07.5h-.58v-1h.58z" fill="#3a414a"/><path d="M811.9 290.9l.06.53h-.63v-1.05h.63zm-.52-.47v.95h.52l-.06-.47.06-.47z" stroke="#3a414a" stroke-width=".05" fill="#3a414a"/><use xlink:href="#G" transform="matrix(1,0,0,1,758.9433074188549,280.2424242424242) translate(0 14.222222222222223)"/><path d="M891.18 291.4h-42.54v-1h42.54zm52.42 0h-42.54v-1h42.54z" stroke="#3a414a" stroke-width=".05" fill="#3a414a"/><path d="M848.65 291.4h-.58l.07-.5-.07-.5h.58z" fill="#3a414a"/><path d="M848.67 291.44h-.63l.07-.53-.06-.5h.63zm-.57-1l.06.47-.06.5h.52v-.96z" stroke="#3a414a" stroke-width=".05" fill="#3a414a"/><path d="M944.1 290.9l.07.5h-.58v-1h.57z" fill="#3a414a"/><path d="M944.13 290.9l.07.54h-.64v-1.05h.63zm-.52-.46v.95h.54l-.06-.5.06-.46z" stroke="#3a414a" stroke-width=".05" fill="#3a414a"/><use xlink:href="#H" transform="matrix(1,0,0,1,891.1801500150619,280.24413210450797) translate(0 14.222222222222223)"/><path d="M1023.42 291.4h-42.55v-1h42.55zm52.42 0h-42.55v-1h42.54z" stroke="#3a414a" stroke-width=".05" fill="#3a414a"/><path d="M980.9 291.4h-.6l.07-.5-.06-.5h.6z" fill="#3a414a"/><path d="M980.9 291.44h-.62l.07-.53-.07-.5h.63zm-.56-1l.06.47-.06.5h.52v-.96z" stroke="#3a414a" stroke-width=".05" fill="#3a414a"/><path d="M1076.34 290.9l.06.5h-.58v-1h.58z" fill="#3a414a"/><path d="M1076.36 290.9l.07.54h-.63v-1.05h.63zm-.5-.46v.95h.52l-.07-.5.07-.46z" stroke="#3a414a" stroke-width=".05" fill="#3a414a"/><use xlink:href="#I" transform="matrix(1,0,0,1,1023.4169921203251,280.24413210450797) translate(0 14.222222222222223)"/><path d="M1217.37 290.4v1h-58.05v-1h5.93zm-104.26 1v-1h36.35v1z" stroke="#3a414a" stroke-width=".05" fill="#3a414a"/><path d="M1113.12 291.4h-.58l.07-.5-.06-.5h.58z" fill="#3a414a"/><path d="M1113.15 291.44h-.63l.06-.53-.06-.5h.63zm-.58-1l.06.47-.06.5h.53v-.96zM1217.9 291.34l-18.08 10.7-.5-.87 18.06-10.7z" stroke="#3a414a" stroke-width=".05" fill="#3a414a"/><use xlink:href="#J" transform="matrix(1,0,0,1,1149.4460782224494,280.24413210450797) translate(0 14.222222222222223)"/><path d="M382.78 410.8l-98.68 54.35-.48-.88 99.16-54.6zm182.55-100.53l-163.8 90.2v-1.14l163.32-89.93z" stroke="#3a414a" stroke-width=".05" fill="#3a414a"/><path d="M565.32 310.28l-.42-.77.63.1 1.36-.18z" fill="#3a414a"/><path d="M565.3 310.3l-.45-.82.68.1 1.48-.2zm.23-.68l-.6-.08.4.7 1.43-.78z" stroke="#3a414a" stroke-width=".05" fill="#3a414a"/><path d="M284.05 465.03l-.63-.08-1.36.18 1.57-.87z" fill="#3a414a"/><path d="M284.1 465.06l-.68-.08-1.5.2 1.72-.95zm-1.9.03l1.22-.17.6.07-.4-.7z" stroke="#3a414a" stroke-width=".05" fill="#3a414a"/><use xlink:href="#K" transform="matrix(1,0,0,1,382.77842413243195,394.40054472285556) translate(0 14.222222222222223)"/><path d="M466.18 406.48l-60.4 58.48-.7-.72 61.1-59.15zm99.33-96.18l-79.57 77.06v-1.4l78.9-76.38z" stroke="#3a414a" stroke-width=".05" fill="#3a414a"/><path d="M565.5 310.3l-.7-.7h.73l.83-.1z" fill="#3a414a"/><path d="M565.5 310.35l-.75-.78h.77l.9-.12zm.03-.73h-.66l.64.66.8-.76zM405.8 464.95l-.37.36-.7-.7.37-.37z" stroke="#3a414a" stroke-width=".05" fill="#3a414a"/><use xlink:href="#L" transform="matrix(1,0,0,1,466.18041191780014,385.5582966963655) translate(0 14.222222222222223)"/><path d="M541.54 393.08l-135.78 72.08-.47-.9 136.24-72.3zm156.02-82.8L561.3 382.6v-1.14l135.8-72.07z" stroke="#3a414a" stroke-width=".05" fill="#3a414a"/><path d="M697.54 310.28l-.4-.77.62.1 1.42-.2z" fill="#3a414a"/><path d="M697.53 310.3l-.44-.82.66.1 1.55-.2zm.23-.68l-.58-.08.37.7 1.5-.8z" stroke="#3a414a" stroke-width=".05" fill="#3a414a"/><path d="M405.7 465.03l-.62-.08-1.42.2 1.64-.88z" fill="#3a414a"/><path d="M405.75 465.06l-.67-.08-1.55.2 1.78-.95zm-1.95.03l1.28-.17.58.07-.37-.7z" stroke="#3a414a" stroke-width=".05" fill="#3a414a"/><use xlink:href="#M" transform="matrix(1,0,0,1,541.5445094217025,376.6060604247928) translate(0 14.222222222222223)"/><path d="M590.25 421.17h.25l-49.1 50.76-.73-.7L590.25 420zM697.77 310.3L610 401v-1.16h-.25l87.3-90.23z" stroke="#3a414a" stroke-width=".05" fill="#3a414a"/><path d="M698.12 309.94l-.35.37-.72-.68.35-.37z" stroke="#3a414a" stroke-width=".05" fill="#3a414a"/><path d="M541.4 471.92l-.4.42-.63-.8.3-.32z" fill="#3a414a"/><path d="M541.43 471.92l-.44.46-.66-.84.34-.35zm-1.02-.38l.6.76.36-.38-.68-.66z" stroke="#3a414a" stroke-width=".05" fill="#3a414a"/><use xlink:href="#N" transform="matrix(1,0,0,1,590.2487179460045,399.8357335232944) translate(0 14.222222222222223)"/><path d="M649.02 464.63l-.95-.3 24.05-75.7h1.05zm49.07-154.4l-18.15 57.07h-1.05l18.24-57.38z" stroke="#3a414a" stroke-width=".05" fill="#3a414a"/><path d="M698.08 310.24l-.95-.3.13-.4.5.06.55-.08z" fill="#3a414a"/><path d="M698.1 310.27l-1-.32.14-.45.52.07.6-.08zm-.34-.65l-.48-.06-.12.36.9.28.2-.65z" stroke="#3a414a" stroke-width=".05" fill="#3a414a"/><path d="M649.03 464.6l-.13.42-.5-.07-.55.07.22-.7z" fill="#3a414a"/><path d="M649.06 464.6l-.14.44-.53-.06-.6.07.26-.77zm-1.18.4l.5-.07.5.06.12-.37-.9-.3z" stroke="#3a414a" stroke-width=".05" fill="#3a414a"/><use xlink:href="#O" transform="matrix(1,0,0,1,666.1601030289099,367.2986222342519) translate(0 14.222222222222223)"/><path d="M730.62 391.95l-78.92 64.9-.64-.78 79.56-65.4zm99.3-81.65l-79.55 65.4v-1.28l78.93-64.9z" stroke="#3a414a" stroke-width=".05" fill="#3a414a"/><path d="M829.92 310.3l-.63-.77.7.07.94-.13z" fill="#3a414a"/><path d="M829.92 310.34l-.7-.84.78.07 1.02-.13zm.08-.72l-.66-.06.58.7.93-.75zM651.7 456.83l-.4.33-.62-.77.4-.34z" stroke="#3a414a" stroke-width=".05" fill="#3a414a"/><use xlink:href="#P" transform="matrix(1,0,0,1,730.6202393535841,372.51699749294556) translate(0 14.222222222222223)"/><path d="M770.7 464.66l-.93-.36 21.66-56.13h1.07zm59.6-154.42l-29.57 76.6h-1.07l29.7-76.96z" stroke="#3a414a" stroke-width=".05" fill="#3a414a"/><path d="M830.28 310.25l-.93-.36.14-.37.5.07.56-.08z" fill="#3a414a"/><path d="M830.3 310.3l-.98-.4.15-.4.53.07.6-.08zm-.3-.68l-.5-.06-.12.32.9.34.25-.67z" stroke="#3a414a" stroke-width=".05" fill="#3a414a"/><path d="M770.7 464.65l-.14.37-.5-.07-.57.07.27-.73z" fill="#3a414a"/><path d="M770.74 464.64l-.16.4-.53-.06-.6.07.3-.8zm-1.2.35l.5-.07.5.06.13-.33-.88-.35z" stroke="#3a414a" stroke-width=".05" fill="#3a414a"/><use xlink:href="#Q" transform="matrix(1,0,0,1,786.2013420451175,386.83851490735543) translate(0 14.222222222222223)"/><path d="M892 464.3l-.94.37-31.17-78.46h1.07zm-39.5-99.43h-1.08l-21.7-54.63.93-.36z" stroke="#3a414a" stroke-width=".05" fill="#3a414a"/><path d="M830 309.6l.5-.07.15.36-.93.36-.3-.74z" fill="#3a414a"/><path d="M830 309.57l.53-.07.16.4-1 .4-.3-.8zm-.26.65l.88-.35-.12-.3-.5.05-.53-.07z" stroke="#3a414a" stroke-width=".05" fill="#3a414a"/><path d="M892.28 465.02l-.57-.07-.5.07-.14-.36.93-.37z" fill="#3a414a"/><path d="M892.32 465.06l-.6-.08-.54.06-.16-.4.98-.38zm-1.23-.4l.12.33.5-.07.52.06-.27-.68z" stroke="#3a414a" stroke-width=".05" fill="#3a414a"/><use xlink:href="#R" transform="matrix(1,0,0,1,846.3182965651209,364.87353335446) translate(0 14.222222222222223)"/><path d="M892.37 464.7l-.9-.4 34.96-77.04h1.1zm70.12-154.44l-25.3 55.67h-1.1l25.47-56.1z" stroke="#3a414a" stroke-width=".05" fill="#3a414a"/><path d="M962.48 310.27l-.9-.4.14-.34.52.07.58-.08z" fill="#3a414a"/><path d="M962.5 310.3l-.96-.43.16-.37.54.07.62-.08zm-.26-.68l-.5-.07-.14.3.87.4.3-.7z" stroke="#3a414a" stroke-width=".05" fill="#3a414a"/><path d="M892.38 464.7l-.15.32-.52-.07-.57.08.34-.75z" fill="#3a414a"/><path d="M892.4 464.68l-.16.37-.53-.07-.6.08.35-.82zm-1.23.32l.54-.07.5.06.14-.3-.86-.4z" stroke="#3a414a" stroke-width=".05" fill="#3a414a"/><use xlink:href="#S" transform="matrix(1,0,0,1,921.9446957970497,365.9278869412204) translate(0 14.222222222222223)"/><path d="M1013.7 464.32l-.96.3-21.95-66.68h1.04zm-28.88-87.7h-1.05l-21.85-66.4.95-.3z" stroke="#3a414a" stroke-width=".05" fill="#3a414a"/><path d="M962.24 309.6l.5-.07.13.4-.95.3-.23-.7z" fill="#3a414a"/><path d="M962.24 309.57l.52-.07.14.44-1 .33-.25-.78zm-.3.64l.9-.3-.12-.34-.48.06-.52-.07z" stroke="#3a414a" stroke-width=".05" fill="#3a414a"/><path d="M1013.92 465.02l-.55-.07-.5.07-.14-.4.95-.3z" fill="#3a414a"/><path d="M1013.95 465.05l-.58-.07-.52.06-.15-.44 1-.32zm-1.2-.4l.13.34.5-.07.5.06-.2-.66z" stroke="#3a414a" stroke-width=".05" fill="#3a414a"/><use xlink:href="#T" transform="matrix(1,0,0,1,977.9260883690707,376.6060604247928) translate(0 14.222222222222223)"/><path d="M1135 464.24l-.68.75-75.8-68.17v-1.35zm-96.24-86.52v1.35l-76.5-68.77.68-.74z" stroke="#3a414a" stroke-width=".05" fill="#3a414a"/><path d="M962.24 309.6l.65-.1-.62.8-.92-.82z" fill="#3a414a"/><path d="M962.24 309.57l.7-.1-.65.88-1.02-.9zm.04.7l.55-.73-.6.08-.8-.1z" stroke="#3a414a" stroke-width=".05" fill="#3a414a"/><path d="M1135.9 465.07l-.87-.12-.66.1.6-.8z" fill="#3a414a"/><path d="M1135.98 465.1l-.95-.12-.7.1.65-.88zm-1.55-.1l.6-.07.8.1-.85-.76z" stroke="#3a414a" stroke-width=".05" fill="#3a414a"/><use xlink:href="#U" transform="matrix(1,0,0,1,1038.7550357374919,376.6060604247928) translate(0 14.222222222222223)"/><path d="M1135.4 464.35l-.97.22-15.1-67.1h1.03zm-19.83-88.22h-1.03l-15.04-66.88.97-.22z" stroke="#3a414a" stroke-width=".05" fill="#3a414a"/><path d="M1100.48 309.04l-.98.22-.1-.4.95-.4z" fill="#3a414a"/><path d="M1100.5 309.06l-1.02.23-.1-.47.98-.4zm-1.06-.2l.08.37.93-.2-.12-.54z" stroke="#3a414a" stroke-width=".05" fill="#3a414a"/><path d="M1135.55 465.02l-.52-.07-.5.07-.1-.46.97-.22z" fill="#3a414a"/><path d="M1135.6 465.05l-.57-.07-.52.06-.1-.5 1.02-.23zm-1.14-.47l.1.4.47-.05.5.06-.15-.63z" stroke="#3a414a" stroke-width=".05" fill="#3a414a"/><use xlink:href="#V" transform="matrix(1,0,0,1,1107.5748899454995,376.13469242555857) translate(0 14.222222222222223)"/><path d="M1256.67 464.24l-.7.73-70.5-67.55v-1.38zm-90.97-87.12v1.4l-71.2-68.22.68-.72z" stroke="#3a414a" stroke-width=".05" fill="#3a414a"/><path d="M1094.47 309.6l.64-.1-.6.8-.86-.8z" fill="#3a414a"/><path d="M1094.47 309.57l.7-.1-.67.88-.94-.9zm.03.7l.55-.73-.58.08-.76-.1z" stroke="#3a414a" stroke-width=".05" fill="#3a414a"/><path d="M1257.52 465.06l-.84-.1-.63.07.6-.8z" fill="#3a414a"/><path d="M1257.6 465.1l-.92-.12-.7.1.68-.88zm-1.5-.1l.58-.07.77.1-.8-.76z" stroke="#3a414a" stroke-width=".05" fill="#3a414a"/><use xlink:href="#W" transform="matrix(1,0,0,1,1165.7024041585444,376.6060604247928) translate(0 14.222222222222223)"/><path d="M1378.14 464.27l-.48.88-131.38-71.9v-1.14zm-151.6-82.97v1.14l-131.87-72.17.48-.87z" stroke="#3a414a" stroke-width=".05" fill="#3a414a"/><path d="M1094.47 309.6l.63-.1-.42.78-1.58-.86z" fill="#3a414a"/><path d="M1094.47 309.57l.68-.1-.46.84-1.73-.93zm.2.68l.4-.7-.6.07-1.24-.16z" stroke="#3a414a" stroke-width=".05" fill="#3a414a"/><path d="M1379.7 465.13l-1.36-.18-.63.08.43-.76z" fill="#3a414a"/><path d="M1379.84 465.17l-1.5-.2-.67.1.45-.84zm-2.08-.17l.58-.07 1.24.16-1.44-.8z" stroke="#3a414a" stroke-width=".05" fill="#3a414a"/><use xlink:href="#X" transform="matrix(1,0,0,1,1226.5313515269652,376.6060604247928) translate(0 14.222222222222223)"/><path d="M283.9 660.93h-1v-58.1h1zm.02-158.1v78.68h-1v-78.68z" stroke="#3a414a" stroke-width=".05" fill="#3a414a"/><path d="M283.42 502.32l.5-.06v.58h-1v-.58z" fill="#3a414a"/><path d="M283.42 502.3l.53-.07v.63h-1.05v-.63zm-.47.5h.95v-.5l-.48.05-.47-.06z" stroke="#3a414a" stroke-width=".05" fill="#3a414a"/><path d="M283.9 660.9v.6l-1-.14v-.45z" fill="#3a414a"/><path d="M283.93 660.9v.62l-1.05-.14v-.5zm-1 .44l.95.12v-.52h-.95z" stroke="#3a414a" stroke-width=".05" fill="#3a414a"/><use xlink:href="#Y" transform="matrix(1,0,0,1,273.5338432980461,581.508012566516) translate(0 14.222222222222223)"/><path d="M283.24 661.22l-.8-.6 52.52-68.14h1.26zm121.93-158.2l-52.5 68.13h-1.27l52.98-68.74z" stroke="#3a414a" stroke-width=".05" fill="#3a414a"/><path d="M405.16 503.03l-.8-.6.15-.18.58.07.7-.1z" fill="#3a414a"/><path d="M405.17 503.07l-.84-.64.16-.2.58.07.76-.1zm-.1-.72l-.55-.08-.12.15.76.58.56-.74z" stroke="#3a414a" stroke-width=".05" fill="#3a414a"/><path d="M283.25 661.2l-.14.2-.56-.1-.7.1.62-.8z" fill="#3a414a"/><path d="M283.28 661.2l-.16.22-.58-.08-.76.1.67-.87zm-1.4.17l.66-.08.56.06.1-.14-.74-.58z" stroke="#3a414a" stroke-width=".05" fill="#3a414a"/><use xlink:href="#Z" transform="matrix(1,0,0,1,333.9326673164393,571.1515149702475) translate(0 14.222222222222223)"/><path d="M405.56 660.93h-1v-68.4h1zm.02-158.1v68.38h-1v-68.38z" stroke="#3a414a" stroke-width=".05" fill="#3a414a"/><path d="M405.08 502.32l.5-.06v.58h-1v-.58z" fill="#3a414a"/><path d="M405.08 502.3l.52-.07v.63h-1.05v-.63zm-.48.5h.95v-.5l-.47.05-.48-.06z" stroke="#3a414a" stroke-width=".05" fill="#3a414a"/><path d="M405.56 660.9v.6l-1-.14v-.45z" fill="#3a414a"/><path d="M405.6 660.9v.62l-1.06-.14v-.5zm-1 .44l.94.12v-.52h-.95z" stroke="#3a414a" stroke-width=".05" fill="#3a414a"/><use xlink:href="#aa" transform="matrix(1,0,0,1,395.19296071207117,571.2080893218936) translate(0 14.222222222222223)"/><path d="M404.9 661.22l-.8-.6 52.5-68.14h1.28zm121.93-158.2l-52.5 68.13h-1.27l52.98-68.74z" stroke="#3a414a" stroke-width=".05" fill="#3a414a"/><path d="M526.82 503.03l-.8-.6.14-.18.58.07.7-.1z" fill="#3a414a"/><path d="M526.82 503.07l-.83-.64.15-.2.6.07.75-.1zm-.08-.72l-.57-.08-.1.15.75.58.56-.74z" stroke="#3a414a" stroke-width=".05" fill="#3a414a"/><path d="M404.9 661.2l-.13.2-.57-.1-.7.1.6-.8z" fill="#3a414a"/><path d="M404.94 661.2l-.16.22-.58-.08-.76.1.67-.87zm-1.4.17l.66-.08.56.06.1-.14-.74-.58z" stroke="#3a414a" stroke-width=".05" fill="#3a414a"/><use xlink:href="#ab" transform="matrix(1,0,0,1,455.59056205328125,571.1515149702475) translate(0 14.222222222222223)"/><path d="M527.22 660.93h-1v-68.4h1zm.02-158.1v68.38h-1v-68.38z" stroke="#3a414a" stroke-width=".05" fill="#3a414a"/><path d="M526.74 502.32l.5-.06v.58h-1v-.58z" fill="#3a414a"/><path d="M526.74 502.3l.52-.07v.63h-1.05v-.63zm-.48.5h.95v-.5l-.46.05-.48-.06z" stroke="#3a414a" stroke-width=".05" fill="#3a414a"/><path d="M527.22 660.9v.6l-1-.14v-.45z" fill="#3a414a"/><path d="M527.24 660.9v.62l-1.05-.14v-.5zm-1 .44l.95.12v-.52h-.96z" stroke="#3a414a" stroke-width=".05" fill="#3a414a"/><use xlink:href="#ac" transform="matrix(1,0,0,1,516.850855448913,571.2080893218936) translate(0 14.222222222222223)"/><path d="M526.56 661.22l-.8-.6 52.5-68.14h1.28zm121.93-158.2l-52.52 68.13h-1.27l53-68.74z" stroke="#3a414a" stroke-width=".05" fill="#3a414a"/><path d="M648.48 503.03l-.8-.6.14-.18.57.07.7-.1z" fill="#3a414a"/><path d="M648.48 503.07l-.83-.64.16-.2.6.07.75-.1zm-.1-.72l-.55-.08-.1.15.74.58.57-.74z" stroke="#3a414a" stroke-width=".05" fill="#3a414a"/><path d="M526.56 661.2l-.13.2-.57-.1-.7.1.6-.8z" fill="#3a414a"/><path d="M526.6 661.2l-.16.22-.58-.08-.76.1.67-.87zm-1.4.17l.66-.08.56.06.1-.14-.74-.58z" stroke="#3a414a" stroke-width=".05" fill="#3a414a"/><use xlink:href="#ad" transform="matrix(1,0,0,1,577.2484567901234,571.1515149702475) translate(0 14.222222222222223)"/><path d="M648.88 660.93h-1v-68.4h1zm0-158.1v68.38h-1v-68.38z" stroke="#3a414a" stroke-width=".05" fill="#3a414a"/><path d="M648.4 502.32l.5-.06v.58h-1v-.58z" fill="#3a414a"/><path d="M648.4 502.3l.52-.07v.63h-1.05v-.63zm-.48.5h.95v-.5l-.48.05-.48-.06z" stroke="#3a414a" stroke-width=".05" fill="#3a414a"/><path d="M648.88 660.9v.6l-1-.14v-.45z" fill="#3a414a"/><path d="M648.9 660.9v.62l-1.05-.14v-.5zm-1 .44l.95.12v-.52h-.95z" stroke="#3a414a" stroke-width=".05" fill="#3a414a"/><use xlink:href="#ae" transform="matrix(1,0,0,1,638.5087501857553,571.2080893218936) translate(0 14.222222222222223)"/><path d="M648.2 661.22l-.78-.6 46.2-59.97h1.28zm121.94-158.2l-58.8 76.3h-1.26l59.27-76.9z" stroke="#3a414a" stroke-width=".05" fill="#3a414a"/><path d="M770.14 503.03l-.8-.6.14-.18.57.07.7-.1z" fill="#3a414a"/><path d="M770.14 503.07l-.83-.64.17-.2.58.07.76-.1zm-.1-.72l-.55-.08-.12.15.75.58.57-.74z" stroke="#3a414a" stroke-width=".05" fill="#3a414a"/><path d="M648.22 661.2l-.13.2-.6-.1-.7.1.63-.8z" fill="#3a414a"/><path d="M648.26 661.2l-.16.22-.6-.08-.75.1.68-.87zm-1.4.17l.65-.08.58.06.1-.14-.75-.58z" stroke="#3a414a" stroke-width=".05" fill="#3a414a"/><use xlink:href="#af" transform="matrix(1,0,0,1,692.610755770997,579.3198691444577) translate(0 14.222222222222223)"/><path d="M770.53 660.93h-1v-68.4h1zm.02-158.1v68.38h-1v-68.38z" stroke="#3a414a" stroke-width=".05" fill="#3a414a"/><path d="M770.05 502.32l.5-.06v.58h-1v-.58z" fill="#3a414a"/><path d="M770.05 502.3l.53-.07v.63h-1.05v-.63zm-.47.5h.95v-.5l-.48.05-.47-.06z" stroke="#3a414a" stroke-width=".05" fill="#3a414a"/><path d="M770.53 660.9v.6l-1-.14v-.45z" fill="#3a414a"/><path d="M770.56 660.9v.62l-1.05-.14v-.5zm-1 .44l.95.12v-.52h-.94z" stroke="#3a414a" stroke-width=".05" fill="#3a414a"/><use xlink:href="#ag" transform="matrix(1,0,0,1,760.1666449225974,571.2080893218936) translate(0 14.222222222222223)"/><path d="M769.87 661.22l-.8-.6 52.52-68.14h1.25zm121.93-158.2l-52.5 68.13h-1.27L891 502.4z" stroke="#3a414a" stroke-width=".05" fill="#3a414a"/><path d="M891.8 503.03l-.8-.6.14-.18.57.07.7-.1z" fill="#3a414a"/><path d="M891.8 503.07l-.83-.64.16-.2.58.07.77-.1zm-.1-.72l-.55-.08-.1.15.74.58.56-.74z" stroke="#3a414a" stroke-width=".05" fill="#3a414a"/><path d="M769.88 661.2l-.14.2-.57-.1-.7.1.62-.8z" fill="#3a414a"/><path d="M769.92 661.2l-.16.22-.6-.08-.75.1.68-.87zm-1.4.17l.65-.08.56.06.12-.14-.76-.58z" stroke="#3a414a" stroke-width=".05" fill="#3a414a"/><use xlink:href="#ah" transform="matrix(1,0,0,1,820.5642462638076,571.1515149702475) translate(0 14.222222222222223)"/><path d="M892.2 660.93h-1v-68.4h1zm0-158.1v68.38h-1v-68.38z" stroke="#3a414a" stroke-width=".05" fill="#3a414a"/><path d="M891.7 502.32l.5-.06v.58h-1v-.58z" fill="#3a414a"/><path d="M891.7 502.3l.54-.07v.63h-1.05v-.63zm-.46.5h.95v-.5l-.5.05-.46-.06z" stroke="#3a414a" stroke-width=".05" fill="#3a414a"/><path d="M892.2 660.9v.6l-1-.14v-.45z" fill="#3a414a"/><path d="M892.22 660.9v.62l-1.05-.14v-.5zm-1 .44l.95.12v-.52h-.95z" stroke="#3a414a" stroke-width=".05" fill="#3a414a"/><use xlink:href="#ai" transform="matrix(1,0,0,1,881.8245396594394,571.2080893218936) translate(0 14.222222222222223)"/><path d="M891.53 661.22l-.8-.6 52.52-68.14h1.26zm121.93-158.2l-52.5 68.13h-1.27l52.97-68.74z" stroke="#3a414a" stroke-width=".05" fill="#3a414a"/><path d="M1013.45 503.03l-.8-.6.15-.18.57.07.7-.1z" fill="#3a414a"/><path d="M1013.46 503.07l-.84-.64.16-.2.6.07.75-.1zm-.1-.72l-.55-.08-.1.15.75.58.56-.74z" stroke="#3a414a" stroke-width=".05" fill="#3a414a"/><path d="M891.54 661.2l-.14.2-.57-.1-.7.1.62-.8z" fill="#3a414a"/><path d="M891.57 661.2l-.16.22-.57-.08-.76.1.67-.87zm-1.4.17l.66-.08.56.06.1-.14-.75-.58z" stroke="#3a414a" stroke-width=".05" fill="#3a414a"/><use xlink:href="#aj" transform="matrix(1,0,0,1,942.2221410006497,571.1515149702475) translate(0 14.222222222222223)"/><path d="M1013.85 660.93h-1v-68.4h1zm.02-158.1v68.38h-1v-68.38z" stroke="#3a414a" stroke-width=".05" fill="#3a414a"/><path d="M1013.37 502.32l.5-.06v.58h-1v-.58z" fill="#3a414a"/><path d="M1013.37 502.3l.52-.07v.63h-1.06v-.63zm-.48.5h.94v-.5l-.47.05-.48-.06z" stroke="#3a414a" stroke-width=".05" fill="#3a414a"/><path d="M1013.85 660.9v.6l-1-.14v-.45z" fill="#3a414a"/><path d="M1013.87 660.9v.62l-1.05-.14v-.5zm-1 .44l.95.12v-.52h-.95z" stroke="#3a414a" stroke-width=".05" fill="#3a414a"/><use xlink:href="#ak" transform="matrix(1,0,0,1,1003.4824343962816,571.2080893218936) translate(0 14.222222222222223)"/><path d="M1013.2 661.22l-.8-.6 52.5-68.14h1.27zm121.92-158.2l-52.5 68.13h-1.27l52.98-68.74z" stroke="#3a414a" stroke-width=".05" fill="#3a414a"/><path d="M1135.1 503.03l-.78-.6.13-.18.58.07.7-.1z" fill="#3a414a"/><path d="M1135.1 503.07l-.82-.64.16-.2.6.07.75-.1zm-.07-.72l-.57-.08-.1.15.74.58.57-.74z" stroke="#3a414a" stroke-width=".05" fill="#3a414a"/><path d="M1013.2 661.2l-.14.2-.57-.1-.72.1.62-.8z" fill="#3a414a"/><path d="M1013.23 661.2l-.16.22-.58-.08-.77.1.67-.87zm-1.4.17l.66-.08.55.06.1-.14-.74-.58z" stroke="#3a414a" stroke-width=".05" fill="#3a414a"/><use xlink:href="#al" transform="matrix(1,0,0,1,1063.880035737492,571.1515149702475) translate(0 14.222222222222223)"/><path d="M1135.5 660.93h-1l.02-68.4h1zm.03-158.1v68.38h-1v-68.38z" stroke="#3a414a" stroke-width=".05" fill="#3a414a"/><path d="M1135.03 502.32l.5-.06v.58h-1v-.58z" fill="#3a414a"/><path d="M1135.03 502.3l.52-.07v.63h-1.05v-.63zm-.48.5h.95v-.5l-.47.05-.48-.06z" stroke="#3a414a" stroke-width=".05" fill="#3a414a"/><path d="M1135.5 660.9v.6l-1-.14v-.45z" fill="#3a414a"/><path d="M1135.53 660.9v.62l-1.05-.14v-.5zm-1 .44l.95.12v-.52h-.95z" stroke="#3a414a" stroke-width=".05" fill="#3a414a"/><use xlink:href="#am" transform="matrix(1,0,0,1,1125.1403291331242,571.2080893218936) translate(0 14.222222222222223)"/><path d="M1134.85 661.22l-.8-.6 52.5-68.14h1.27zm121.93-158.2l-52.5 68.13H1203l52.98-68.74z" stroke="#3a414a" stroke-width=".05" fill="#3a414a"/><path d="M1256.77 503.03l-.8-.6.14-.18.58.07.7-.1z" fill="#3a414a"/><path d="M1256.77 503.07l-.83-.64.16-.2.58.07.76-.1zm-.1-.72l-.55-.08-.1.15.74.58.57-.74z" stroke="#3a414a" stroke-width=".05" fill="#3a414a"/><path d="M1134.85 661.2l-.13.2-.58-.1-.7.1.62-.8z" fill="#3a414a"/><path d="M1134.9 661.2l-.17.22-.6-.08-.74.1.66-.87zm-1.4.17l.64-.08.57.06.12-.14-.75-.58z" stroke="#3a414a" stroke-width=".05" fill="#3a414a"/><use xlink:href="#an" transform="matrix(1,0,0,1,1185.5379304743342,571.1515149702475) translate(0 14.222222222222223)"/><path d="M1257.17 660.93h-1v-68.4h1zm0-158.1v68.38h-1v-68.38z" stroke="#3a414a" stroke-width=".05" fill="#3a414a"/><path d="M1256.68 502.32l.5-.06v.58h-1v-.58z" fill="#3a414a"/><path d="M1256.68 502.3l.53-.07v.63h-1.04v-.63zm-.47.5h.96v-.5l-.48.05-.47-.06z" stroke="#3a414a" stroke-width=".05" fill="#3a414a"/><path d="M1257.17 660.9v.6l-1-.14v-.45z" fill="#3a414a"/><path d="M1257.2 660.9v.62l-1.06-.14v-.5zm-1 .44l.94.12v-.52h-.95z" stroke="#3a414a" stroke-width=".05" fill="#3a414a"/><use xlink:href="#ao" transform="matrix(1,0,0,1,1246.798223869966,571.2080893218936) translate(0 14.222222222222223)"/><path d="M1256.5 661.22l-.8-.6 52.52-68.14h1.26zm121.93-158.2l-52.5 68.13h-1.27l52.98-68.74z" stroke="#3a414a" stroke-width=".05" fill="#3a414a"/><path d="M1378.43 503.03l-.8-.6.14-.18.57.07.7-.1z" fill="#3a414a"/><path d="M1378.43 503.07l-.83-.64.16-.2.58.07.76-.1zm-.1-.72l-.55-.08-.1.15.74.58.57-.74z" stroke="#3a414a" stroke-width=".05" fill="#3a414a"/><path d="M1256.5 661.2l-.12.2-.58-.1-.7.1.62-.8z" fill="#3a414a"/><path d="M1256.55 661.2l-.16.22-.6-.08-.76.1.68-.87zm-1.4.17l.65-.08.56.06.12-.14-.76-.58z" stroke="#3a414a" stroke-width=".05" fill="#3a414a"/><use xlink:href="#ap" transform="matrix(1,0,0,1,1307.195825211176,571.1515149702475) translate(0 14.222222222222223)"/><path d="M1378.82 660.93h-1v-68.4h1zm.02-158.1v68.38h-1v-68.38z" stroke="#3a414a" stroke-width=".05" fill="#3a414a"/><path d="M1378.84 502.32v.52h-1v-.52z" stroke="#3a414a" stroke-width=".05" fill="#3a414a"/><path d="M1378.82 660.9v.6l-1-.14v-.45z" fill="#3a414a"/><path d="M1378.85 660.9v.62l-1.05-.14v-.5zm-1 .44l.95.12v-.52h-.95z" stroke="#3a414a" stroke-width=".05" fill="#3a414a"/><use xlink:href="#aq" transform="matrix(1,0,0,1,1368.456118606808,571.2080893218936) translate(0 14.222222222222223)"/><path d="M334.37 484.14h-32.3v-1h32.3zm52.07 0h-32.3v-1h32.3z" stroke="#3a414a" stroke-width=".05" fill="#3a414a"/><path d="M302.07 484.14h-.58l.06-.5-.07-.5h.57z" fill="#3a414a"/><path d="M302.1 484.16h-.64l.07-.52-.07-.53h.63zm-.58-1l.06.48-.06.47h.52v-.94z" stroke="#3a414a" stroke-width=".05" fill="#3a414a"/><path d="M386.94 483.64l.07.5h-.57v-1h.58z" fill="#3a414a"/><path d="M386.97 483.64l.07.52h-.63v-1.05h.64zm-.5-.48v.95h.5l-.05-.46.06-.48z" stroke="#3a414a" stroke-width=".05" fill="#3a414a"/><use xlink:href="#ar" transform="matrix(1,0,0,1,334.3734568665483,472.9696969696969) translate(0 14.222222222222223)"/><path d="M456.03 484.14H423.7v-1h32.33zm52.07 0h-32.32v-1h32.32z" stroke="#3a414a" stroke-width=".05" fill="#3a414a"/><path d="M423.73 484.14h-.58l.06-.5-.05-.5h.58z" fill="#3a414a"/><path d="M423.75 484.16h-.63l.07-.52-.08-.53h.63zm-.57-1l.06.48-.06.47h.52v-.94z" stroke="#3a414a" stroke-width=".05" fill="#3a414a"/><path d="M508.6 483.64l.07.5h-.58v-1h.57z" fill="#3a414a"/><path d="M508.63 483.64l.06.52h-.64v-1.05h.63zm-.52-.48v.95h.54l-.06-.46.06-.48z" stroke="#3a414a" stroke-width=".05" fill="#3a414a"/><use xlink:href="#as" transform="matrix(1,0,0,1,456.03135160339014,472.9696969696969) translate(0 14.222222222222223)"/><path d="M582.3 484.14h-36.93v-1h36.93zm47.46 0h-27.7v-1h27.7z" stroke="#3a414a" stroke-width=".05" fill="#3a414a"/><path d="M545.4 484.14h-.6l.07-.5-.06-.5h.6z" fill="#3a414a"/><path d="M545.4 484.16h-.62l.07-.52-.07-.53h.63zm-.56-1l.06.48-.06.47h.52v-.94z" stroke="#3a414a" stroke-width=".05" fill="#3a414a"/><path d="M630.26 483.64l.06.5h-.57v-1h.57z" fill="#3a414a"/><path d="M630.28 483.64l.07.52h-.63v-1.05h.63zm-.5-.48v.95h.52l-.07-.46.07-.48z" stroke="#3a414a" stroke-width=".05" fill="#3a414a"/><use xlink:href="#at" transform="matrix(1,0,0,1,582.2983704840244,472.9696969696969) translate(0 14.222222222222223)"/><path d="M693.6 484.14h-26.57v-1h26.57zm57.82 0h-38.07v-1h38.07z" stroke="#3a414a" stroke-width=".05" fill="#3a414a"/><path d="M667.04 484.14h-.57l.06-.5-.06-.5h.57z" fill="#3a414a"/><path d="M667.07 484.16h-.63l.07-.52-.06-.53h.63zm-.58-1l.06.48-.07.47h.52v-.94z" stroke="#3a414a" stroke-width=".05" fill="#3a414a"/><path d="M751.92 483.64l.06.5h-.58v-1h.58z" fill="#3a414a"/><path d="M751.94 483.64l.07.52h-.62v-1.05h.63zm-.5-.48v.95h.5l-.05-.46.05-.48z" stroke="#3a414a" stroke-width=".05" fill="#3a414a"/><use xlink:href="#au" transform="matrix(1,0,0,1,693.5987157084202,472.9696969696969) translate(0 14.222222222222223)"/><path d="M806.33 484.14H788.7v-1h17.63zm66.74 0h-47v-1h47z" stroke="#3a414a" stroke-width=".05" fill="#3a414a"/><path d="M788.7 484.14h-.58l.07-.5-.08-.5h.58z" fill="#3a414a"/><path d="M788.73 484.16h-.64l.06-.52-.07-.53h.63zm-.58-1l.06.48-.05.47h.53v-.94z" stroke="#3a414a" stroke-width=".05" fill="#3a414a"/><path d="M873.57 483.64l.07.5h-.58v-1h.58z" fill="#3a414a"/><path d="M873.6 483.64l.07.52h-.63v-1.05h.63zm-.5-.48v.95h.5l-.05-.46.06-.48z" stroke="#3a414a" stroke-width=".05" fill="#3a414a"/><use xlink:href="#av" transform="matrix(1,0,0,1,806.3259884356929,472.9696969696969) translate(0 14.222222222222223)"/><path d="M947.6 484.14h-37.25v-1h37.24zm47.13 0h-27.4v-1h27.4z" stroke="#3a414a" stroke-width=".05" fill="#3a414a"/><path d="M910.36 484.14h-.58l.07-.5-.07-.5h.58z" fill="#3a414a"/><path d="M910.38 484.16h-.63l.07-.52-.07-.53h.63zm-.57-1l.07.48-.06.47h.53v-.94z" stroke="#3a414a" stroke-width=".05" fill="#3a414a"/><path d="M995.23 483.64l.07.5h-.58v-1h.58z" fill="#3a414a"/><path d="M995.26 483.64l.07.52h-.64v-1.05h.63zm-.52-.48v.95h.53l-.06-.46.07-.48z" stroke="#3a414a" stroke-width=".05" fill="#3a414a"/><use xlink:href="#aw" transform="matrix(1,0,0,1,947.591811220503,472.9696969696969) translate(0 14.222222222222223)"/><path d="M1068.88 484.14H1032v-1h36.88zm47.5 0h-27.75v-1h27.76z" stroke="#3a414a" stroke-width=".05" fill="#3a414a"/><path d="M1032.02 484.14h-.58l.06-.5-.06-.5h.58z" fill="#3a414a"/><path d="M1032.04 484.16h-.63l.08-.52-.07-.53h.64zm-.57-1l.06.48-.06.47h.52v-.94z" stroke="#3a414a" stroke-width=".05" fill="#3a414a"/><path d="M1116.9 483.64l.06.5h-.58v-1h.58z" fill="#3a414a"/><path d="M1116.92 483.64l.06.52h-.63v-1.05h.63zm-.52-.48v.95h.53l-.06-.46.06-.48z" stroke="#3a414a" stroke-width=".05" fill="#3a414a"/><use xlink:href="#ax" transform="matrix(1,0,0,1,1068.8806489650372,472.9696969696969) translate(0 14.222222222222223)"/><path d="M1193.02 484.14h-39.36v-1h39.36zm45.03 0h-25.27v-1h25.27z" stroke="#3a414a" stroke-width=".05" fill="#3a414a"/><path d="M1153.67 484.14h-.57l.06-.5-.06-.5h.57z" fill="#3a414a"/><path d="M1153.7 484.16h-.63l.07-.52-.07-.53h.63zm-.57-1l.06.48-.07.47h.52v-.94z" stroke="#3a414a" stroke-width=".05" fill="#3a414a"/><path d="M1238.55 483.64l.06.5h-.56v-1h.57z" fill="#3a414a"/><path d="M1238.57 483.64l.07.52h-.63v-1.05h.64zm-.5-.48v.95h.52l-.08-.46.07-.48z" stroke="#3a414a" stroke-width=".05" fill="#3a414a"/><use xlink:href="#ay" transform="matrix(1,0,0,1,1193.0233417153247,472.9696969696969) translate(0 14.222222222222223)"/><path d="M1300.04 484.14h-24.72v-1h24.72zm59.67 0h-39.9v-1h39.9z" stroke="#3a414a" stroke-width=".05" fill="#3a414a"/><path d="M1275.33 484.14h-.58l.07-.5-.07-.5h.58z" fill="#3a414a"/><path d="M1275.36 484.16h-.63l.06-.52-.07-.53h.63zm-.58-1l.07.48-.07.47h.53v-.94z" stroke="#3a414a" stroke-width=".05" fill="#3a414a"/><path d="M1360.2 483.64l.07.5h-.58v-1h.57z" fill="#3a414a"/><path d="M1360.23 483.64l.07.52h-.63v-1.05h.63zm-.5-.48v.95h.5l-.05-.46.06-.48z" stroke="#3a414a" stroke-width=".05" fill="#3a414a"/><use xlink:href="#az" transform="matrix(1,0,0,1,1300.04290443109,472.9696969696969) translate(0 14.222222222222223)"/><path d="M1429.9 484.14h-32.92v-1h32.9zm69.57 0h-49.82v-1h49.82z" stroke="#3a414a" stroke-width=".05" fill="#3a414a"/><path d="M1397 484.14h-.6l.08-.5-.07-.5h.6z" fill="#3a414a"/><path d="M1397.02 484.16h-.64l.07-.52-.07-.53h.64zm-.58-1l.06.48-.06.47h.53v-.94zM1500 484.07l-18.08 10.7-.5-.87 18.07-10.7z" stroke="#3a414a" stroke-width=".05" fill="#3a414a"/><use xlink:href="#aA" transform="matrix(1,0,0,1,1429.8933071928852,472.9696969696969) translate(0 14.222222222222223)"/><path d="M333.5 680.5h-32.32v-1h32.3zm52.06 0h-32.32v-1h32.32z" stroke="#3a414a" stroke-width=".05" fill="#3a414a"/><path d="M301.2 680.5h-.6l.08-.5-.07-.5h.6z" fill="#3a414a"/><path d="M301.2 680.52h-.62l.07-.52-.07-.52h.63zm-.56-1l.06.48-.06.48h.52v-.96z" stroke="#3a414a" stroke-width=".05" fill="#3a414a"/><path d="M386.06 680l.07.5h-.58v-1h.58z" fill="#3a414a"/><path d="M386.1 680l.06.52h-.64v-1.04h.64zm-.53-.48v.96h.53l-.06-.48.06-.48z" stroke="#3a414a" stroke-width=".05" fill="#3a414a"/><use xlink:href="#aB" transform="matrix(1,0,0,1,333.49187791917973,669.3333333333334) translate(0 14.222222222222223)"/><path d="M455.15 680.5h-32.32v-1h32.32zm52.07 0H474.9v-1h32.32z" stroke="#3a414a" stroke-width=".05" fill="#3a414a"/><path d="M422.85 680.5h-.58l.06-.5-.06-.5h.58z" fill="#3a414a"/><path d="M422.87 680.52h-.63l.07-.52-.06-.52h.63zm-.57-1l.06.48-.06.48h.52v-.96z" stroke="#3a414a" stroke-width=".05" fill="#3a414a"/><path d="M507.72 680l.06.5h-.57v-1h.58z" fill="#3a414a"/><path d="M507.74 680l.07.52h-.62v-1.04h.63zm-.5-.48v.96h.52l-.07-.48.06-.48z" stroke="#3a414a" stroke-width=".05" fill="#3a414a"/><use xlink:href="#aC" transform="matrix(1,0,0,1,455.14977265602175,669.3333333333334) translate(0 14.222222222222223)"/><path d="M576.8 680.5h-32.3v-1h32.3zm52.08 0h-32.32v-1h32.32z" stroke="#3a414a" stroke-width=".05" fill="#3a414a"/><path d="M544.5 680.5h-.57l.06-.5-.07-.5h.57z" fill="#3a414a"/><path d="M544.53 680.52h-.63l.07-.52-.07-.52h.63zm-.58-1l.07.48-.07.48h.53v-.96z" stroke="#3a414a" stroke-width=".05" fill="#3a414a"/><path d="M629.38 680l.06.5h-.58v-1h.58z" fill="#3a414a"/><path d="M629.4 680l.07.52h-.63v-1.04h.63zm-.5-.48v.96h.5l-.05-.48.06-.48z" stroke="#3a414a" stroke-width=".05" fill="#3a414a"/><use xlink:href="#aD" transform="matrix(1,0,0,1,576.8076673928639,669.3333333333334) translate(0 14.222222222222223)"/><path d="M692.17 680.5h-26.02v-1h26.02zm58.37 0h-38.62v-1h38.62z" stroke="#3a414a" stroke-width=".05" fill="#3a414a"/><path d="M666.16 680.5h-.58l.07-.5-.07-.5h.58z" fill="#3a414a"/><path d="M666.2 680.52h-.64l.06-.52-.06-.52h.63zm-.6-1l.07.48-.06.48h.54v-.96z" stroke="#3a414a" stroke-width=".05" fill="#3a414a"/><path d="M751.04 680l.06.5h-.58v-1h.58z" fill="#3a414a"/><path d="M751.06 680l.07.52h-.63v-1.04h.63zm-.5-.48v.96h.5l-.05-.48.07-.48z" stroke="#3a414a" stroke-width=".05" fill="#3a414a"/><use xlink:href="#aE" transform="matrix(1,0,0,1,692.1717882055434,669.3333333333334) translate(0 14.222222222222223)"/><path d="M814.9 680.5h-27.1v-1h27.1zm57.3 0h-37.56v-1h37.55z" stroke="#3a414a" stroke-width=".05" fill="#3a414a"/><path d="M787.82 680.5h-.58l.07-.5-.06-.5h.58z" fill="#3a414a"/><path d="M787.84 680.52h-.63l.08-.52-.07-.52h.64zm-.57-1l.06.48-.06.48h.52v-.96z" stroke="#3a414a" stroke-width=".05" fill="#3a414a"/><path d="M872.7 680l.06.5h-.58v-1h.58z" fill="#3a414a"/><path d="M872.72 680l.07.52h-.64v-1.04h.63zm-.5-.48v.96h.5l-.05-.48.06-.48z" stroke="#3a414a" stroke-width=".05" fill="#3a414a"/><use xlink:href="#aF" transform="matrix(1,0,0,1,814.8875534529542,669.3333333333334) translate(0 14.222222222222223)"/><path d="M941.78 680.5h-32.32v-1h32.32zm52.07 0h-32.32v-1h32.32z" stroke="#3a414a" stroke-width=".05" fill="#3a414a"/><path d="M909.48 680.5h-.58l.06-.5-.06-.5h.58z" fill="#3a414a"/><path d="M909.5 680.52h-.63l.07-.52-.07-.52h.63zm-.57-1l.06.48-.07.48h.52v-.96z" stroke="#3a414a" stroke-width=".05" fill="#3a414a"/><path d="M994.35 680l.07.5h-.58v-1h.58z" fill="#3a414a"/><path d="M994.38 680l.06.52h-.63v-1.04h.64zm-.52-.48v.96h.53l-.07-.48.06-.48z" stroke="#3a414a" stroke-width=".05" fill="#3a414a"/><use xlink:href="#aG" transform="matrix(1,0,0,1,941.7813516033904,669.3333333333334) translate(0 14.222222222222223)"/><path d="M1063.44 680.5h-32.32v-1h32.32zm52.07 0h-32.3v-1h32.3z" stroke="#3a414a" stroke-width=".05" fill="#3a414a"/><path d="M1031.14 680.5h-.58l.06-.5-.06-.5h.58z" fill="#3a414a"/><path d="M1031.16 680.52h-.63l.07-.52-.07-.52h.63zm-.57-1l.05.48-.06.48h.5v-.96z" stroke="#3a414a" stroke-width=".05" fill="#3a414a"/><path d="M1116 680l.07.5h-.57v-1h.57z" fill="#3a414a"/><path d="M1116.03 680l.07.52h-.63v-1.04h.63zm-.5-.48v.96h.52l-.07-.48.07-.48z" stroke="#3a414a" stroke-width=".05" fill="#3a414a"/><use xlink:href="#aH" transform="matrix(1,0,0,1,1063.4392463402328,669.3333333333334) translate(0 14.222222222222223)"/><path d="M1185.1 680.5h-32.32v-1h32.32zm52.07 0h-32.32v-1h32.32z" stroke="#3a414a" stroke-width=".05" fill="#3a414a"/><path d="M1152.8 680.5h-.58l.06-.5-.06-.5h.57z" fill="#3a414a"/><path d="M1152.82 680.52h-.63l.06-.52-.07-.52h.62zm-.58-1l.07.48-.06.48h.53v-.96z" stroke="#3a414a" stroke-width=".05" fill="#3a414a"/><path d="M1237.67 680l.06.5h-.58v-1h.58z" fill="#3a414a"/><path d="M1237.7 680l.06.52h-.63v-1.04h.63zm-.52-.48v.96h.52l-.06-.48.06-.48z" stroke="#3a414a" stroke-width=".05" fill="#3a414a"/><use xlink:href="#aI" transform="matrix(1,0,0,1,1185.0971410770749,669.3333333333334) translate(0 14.222222222222223)"/><path d="M1306.76 680.5h-32.32v-1h32.32zm52.06 0h-32.3v-1h32.3z" stroke="#3a414a" stroke-width=".05" fill="#3a414a"/><path d="M1274.45 680.5h-.58l.07-.5-.07-.5h.58z" fill="#3a414a"/><path d="M1274.48 680.52h-.64l.07-.52-.06-.52h.64zm-.58-1l.06.48-.06.48h.53v-.96z" stroke="#3a414a" stroke-width=".05" fill="#3a414a"/><path d="M1359.32 680l.07.5h-.6v-1h.6z" fill="#3a414a"/><path d="M1359.35 680l.07.52h-.63v-1.04h.62zm-.5-.48v.96h.5l-.05-.48.06-.48z" stroke="#3a414a" stroke-width=".05" fill="#3a414a"/><use xlink:href="#aJ" transform="matrix(1,0,0,1,1306.755035813917,669.3333333333334) translate(0 14.222222222222223)"/><path d="M1437.92 680.5h-41.82v-1h41.82zm45.7 0h-25.95v-1h25.95z" stroke="#3a414a" stroke-width=".05" fill="#3a414a"/><path d="M1396.1 680.5h-.57l.07-.5-.07-.5h.58z" fill="#3a414a"/><path d="M1396.13 680.52h-.63l.07-.52-.07-.52h.63zm-.57-1l.06.48-.06.48h.52v-.96z" stroke="#3a414a" stroke-width=".05" fill="#3a414a"/><path d="M1498.38 680l-14.26 4.64v-9.28z" fill="#3a414a"/><path d="M1500 680l-16.38 5.32v-10.64zm-15.38 3.95l12.14-3.95-12.14-3.95z" stroke="#3a414a" stroke-width=".05" fill="#3a414a"/><use xlink:href="#aK" transform="matrix(1,0,0,1,1437.9216410198958,669.3333333333334) translate(0 14.222222222222223)"/><path d="M282.54 857.18v-158" stroke="#3a414a" fill="none"/><path d="M283.04 857.74l-.5-.06-.5.06v-.58h1zM282.54 698.7l.5-.08v.58h-1v-.58z" stroke="#3a414a" stroke-width=".05" fill="#3a414a"/><path d="M403.9 857.28l-121.06-158.2" stroke="#3a414a" fill="none"/><path d="M404.9 857.77l-.7-.1-.57.08-.14-.18.78-.6zM282.54 698.7l.57-.1.15.2-.8.6-.6-.8z" stroke="#3a414a" stroke-width=".05" fill="#3a414a"/><path d="M404.2 857.18v-158" stroke="#3a414a" fill="none"/><path d="M404.7 857.74l-.5-.06-.5.06v-.58h1zM404.2 698.7l.5-.08v.58h-1v-.58z" stroke="#3a414a" stroke-width=".05" fill="#3a414a"/><path d="M525.55 857.28L404.5 699.08" stroke="#3a414a" fill="none"/><path d="M526.56 857.77l-.7-.1-.58.08-.13-.18.8-.6zM404.2 698.7l.57-.1.14.2-.8.6-.6-.8z" stroke="#3a414a" stroke-width=".05" fill="#3a414a"/><path d="M525.86 857.18v-158" stroke="#3a414a" fill="none"/><path d="M526.36 857.74l-.5-.06-.5.06v-.58h1zM525.86 698.7l.5-.08v.58h-1v-.58z" stroke="#3a414a" stroke-width=".05" fill="#3a414a"/><path d="M647.2 857.28l-121.04-158.2" stroke="#3a414a" fill="none"/><path d="M648.2 857.77l-.7-.1-.56.08-.14-.18.8-.6zM525.86 698.7l.57-.1.13.2-.8.6-.6-.8z" stroke="#3a414a" stroke-width=".05" fill="#3a414a"/><path d="M647.5 857.18v-158" stroke="#3a414a" fill="none"/><path d="M648 857.74l-.5-.06-.5.06v-.58h1zM647.5 698.7l.5-.08v.58h-1v-.58z" stroke="#3a414a" stroke-width=".05" fill="#3a414a"/><path d="M768.87 857.28l-121.05-158.2" stroke="#3a414a" fill="none"/><path d="M769.87 857.77l-.7-.1-.57.08-.14-.18.8-.6zM647.5 698.7l.6-.1.12.2-.8.6-.6-.8z" stroke="#3a414a" stroke-width=".05" fill="#3a414a"/><path d="M769.17 857.18v-158" stroke="#3a414a" fill="none"/><path d="M769.67 857.74l-.5-.06-.5.06v-.58h1zM769.17 698.7l.5-.08v.58h-1v-.58z" stroke="#3a414a" stroke-width=".05" fill="#3a414a"/><path d="M890.53 857.28l-121.06-158.2" stroke="#3a414a" fill="none"/><path d="M891.53 857.77l-.7-.1-.57.08-.14-.18.8-.6zM769.17 698.7l.57-.1.14.2-.8.6-.6-.8z" stroke="#3a414a" stroke-width=".05" fill="#3a414a"/><path d="M890.83 857.18v-158" stroke="#3a414a" fill="none"/><path d="M891.33 857.74l-.5-.06-.5.06v-.58h1zM890.83 698.7l.5-.08v.58h-1v-.58z" stroke="#3a414a" stroke-width=".05" fill="#3a414a"/><path d="M1012.18 857.28l-121.05-158.2" stroke="#3a414a" fill="none"/><path d="M1013.2 857.77l-.7-.1-.6.08-.12-.18.8-.6zM890.83 698.7l.57-.1.14.2-.8.6-.6-.8z" stroke="#3a414a" stroke-width=".05" fill="#3a414a"/><path d="M1012.5 857.18v-158" stroke="#3a414a" fill="none"/><path d="M1013 857.74l-.5-.06-.5.06v-.58h1zM1012.5 698.7l.5-.08v.58h-1v-.58z" stroke="#3a414a" stroke-width=".05" fill="#3a414a"/><path d="M1133.84 857.28l-121.05-158.2" stroke="#3a414a" fill="none"/><path d="M1134.84 857.77l-.7-.1-.57.08-.13-.18.8-.6zM1012.5 698.7l.56-.1.14.2-.8.6-.6-.8z" stroke="#3a414a" stroke-width=".05" fill="#3a414a"/><path d="M1134.14 857.18v-158" stroke="#3a414a" fill="none"/><path d="M1134.64 857.74l-.5-.06-.5.06v-.58h1zM1134.14 698.7l.5-.08v.58h-1v-.58z" stroke="#3a414a" stroke-width=".05" fill="#3a414a"/><path d="M1255.5 857.28l-121.05-158.2" stroke="#3a414a" fill="none"/><path d="M1256.5 857.77l-.7-.1-.57.08-.14-.18.8-.6zM1134.14 698.7l.58-.1.13.2-.8.6-.6-.8z" stroke="#3a414a" stroke-width=".05" fill="#3a414a"/><path d="M1255.8 857.18v-158" stroke="#3a414a" fill="none"/><path d="M1256.3 857.74l-.5-.06-.5.06v-.58h1zM1255.8 698.7l.5-.08v.58h-1v-.58z" stroke="#3a414a" stroke-width=".05" fill="#3a414a"/><path d="M1377.16 857.28l-121.05-158.2" stroke="#3a414a" fill="none"/><path d="M1378.16 857.77l-.7-.1-.57.08-.15-.18.8-.6zM1255.8 698.7l.57-.1.14.2-.78.6-.62-.8z" stroke="#3a414a" stroke-width=".05" fill="#3a414a"/><path d="M1377.46 857.18v-158" stroke="#3a414a" fill="none"/><path d="M1377.96 857.74l-.5-.06-.5.06v-.58h1zM1377.46 698.7l.5-.08v.58h-1v-.58z" stroke="#3a414a" stroke-width=".05" fill="#3a414a"/><path d="M1490.7 862.88L1377.74 699.1" stroke="#3a414a" fill="none"/><path d="M1499.08 875.03l-11.9-9.1 7.62-5.27z" stroke="#3a414a" fill="#3a414a"/><path d="M1377.46 698.7l.56-.1.14.22-.82.57-.55-.8zM362.9 399.7l-182.24 80.56-.4-.92 182.63-80.72zm202.37-89.45l-182.63 80.73v-1.1l182.23-80.54z" stroke="#3a414a" stroke-width=".05" fill="#3a414a"/><path d="M180.67 480.25l-.47.2-.4-.9.47-.2z" stroke="#3a414a" stroke-width=".05" fill="#3a414a"/><path d="M565.26 310.26l-.33-.74.6.08 1.75-.24z" fill="#3a414a"/><path d="M565.25 310.3l-.36-.8.63.07 1.92-.25zm.28-.68l-.56-.07.3.68 1.85-.82z" stroke="#3a414a" stroke-width=".05" fill="#3a414a"/><use xlink:href="#aL" transform="matrix(1,0,0,1,362.8866146848602,384.1309283252507) translate(0 14.222222222222223)"/><path d="M160.7 679.87l-.83-.57 53.82-77.47h1.2zm122.85-176.85l-53.82 77.47h-1.22l54.23-78.05z" stroke="#3a414a" stroke-width=".05" fill="#3a414a"/><path d="M283.54 503.03l-.82-.57.14-.2.56.06.67-.1z" fill="#3a414a"/><path d="M283.55 503.06l-.87-.6.17-.24.57.08.72-.1zm-.13-.7l-.55-.08-.12.17.78.54.5-.73zM160.7 679.86l-.3.43-.8-.6.28-.4z" stroke="#3a414a" stroke-width=".05" fill="#3a414a"/><use xlink:href="#aM" transform="matrix(1,0,0,1,211.83398312677673,580.494564686151) translate(0 14.222222222222223)"/><defs><path fill="#3a414a" d="M101-251c68 0 85 55 85 127S166 4 100 4C33 4 14-52 14-124c0-73 17-127 87-127zm-1 229c47 0 54-49 54-102s-4-102-53-102c-51 0-55 48-55 102 0 53 5 102 54 102" id="aN"/><use transform="matrix(0.06172839506172839,0,0,0.06172839506172839,0,0)" xlink:href="#aN" id="a"/><path fill="#3a414a" d="M27 0v-27h64v-190l-56 39v-29l58-41h29v221h61V0H27" id="aO"/><use transform="matrix(0.06172839506172839,0,0,0.06172839506172839,0,0)" xlink:href="#aO" id="b"/><path fill="#3a414a" d="M101-251c82-7 93 87 43 132L82-64C71-53 59-42 53-27h129V0H18c2-99 128-94 128-182 0-28-16-43-45-43s-46 15-49 41l-32-3c6-41 34-60 81-64" id="aP"/><use transform="matrix(0.06172839506172839,0,0,0.06172839506172839,0,0)" xlink:href="#aP" id="c"/><path fill="#3a414a" d="M126-127c33 6 58 20 58 59 0 88-139 92-164 29-3-8-5-16-6-25l32-3c6 27 21 44 54 44 32 0 52-15 52-46 0-38-36-46-79-43v-28c39 1 72-4 72-42 0-27-17-43-46-43-28 0-47 15-49 41l-32-3c6-42 35-63 81-64 48-1 79 21 79 65 0 36-21 52-52 59" id="aQ"/><use transform="matrix(0.06172839506172839,0,0,0.06172839506172839,0,0)" xlink:href="#aQ" id="d"/><path fill="#3a414a" d="M54-142c48-35 137-8 131 61C196 18 31 33 14-55l32-4c7 23 22 37 52 37 35-1 51-22 54-58 4-55-73-65-99-34H22l8-134h141v27H59" id="aR"/><use transform="matrix(0.06172839506172839,0,0,0.06172839506172839,0,0)" xlink:href="#aR" id="e"/><path fill="#3a414a" d="M155-56V0h-30v-56H8v-25l114-167h33v167h35v25h-35zm-30-156c-27 46-58 90-88 131h88v-131" id="aS"/><use transform="matrix(0.06172839506172839,0,0,0.06172839506172839,0,0)" xlink:href="#aS" id="f"/><path fill="#3a414a" d="M110-160c48 1 74 30 74 79 0 53-28 85-80 85-65 0-83-55-86-122-5-90 50-162 133-122 14 7 22 21 27 39l-31 6c-5-40-67-38-82-6-9 19-15 44-15 74 11-20 30-34 60-33zm-7 138c34 0 49-23 49-58s-16-56-50-56c-29 0-50 16-49 49 1 36 15 65 50 65" id="aT"/><use transform="matrix(0.06172839506172839,0,0,0.06172839506172839,0,0)" xlink:href="#aT" id="g"/><g id="h"><use transform="matrix(0.06172839506172839,0,0,0.06172839506172839,0,0)" xlink:href="#aO"/><use transform="matrix(0.06172839506172839,0,0,0.06172839506172839,12.345679012345679,0)" xlink:href="#aR"/></g><g id="i"><use transform="matrix(0.06172839506172839,0,0,0.06172839506172839,0,0)" xlink:href="#aO"/><use transform="matrix(0.06172839506172839,0,0,0.06172839506172839,12.345679012345679,0)" xlink:href="#aS"/></g><g id="j"><use transform="matrix(0.06172839506172839,0,0,0.06172839506172839,0,0)" xlink:href="#aO"/><use transform="matrix(0.06172839506172839,0,0,0.06172839506172839,12.345679012345679,0)" xlink:href="#aQ"/></g><path fill="#3a414a" d="M64 0c3-98 48-159 88-221H18v-27h164v26C143-157 98-101 97 0H64" id="aU"/><use transform="matrix(0.06172839506172839,0,0,0.06172839506172839,0,0)" xlink:href="#aU" id="k"/><path fill="#3a414a" d="M134-131c28 9 52 24 51 62-1 50-34 73-85 73S17-19 16-69c0-36 21-54 49-61-75-25-45-126 34-121 46 3 78 18 79 63 0 33-17 51-44 57zm-34-11c31 1 46-15 46-44 0-28-17-43-47-42-29 0-46 13-45 42 1 28 16 44 46 44zm1 122c35 0 51-18 51-52 0-30-18-46-53-46-33 0-51 17-51 47 0 34 19 51 53 51" id="aV"/><use transform="matrix(0.06172839506172839,0,0,0.06172839506172839,0,0)" xlink:href="#aV" id="l"/><path fill="#3a414a" d="M99-251c64 0 84 50 84 122C183-37 130 33 47-8c-14-7-20-23-25-40l30-5c6 39 69 39 84 7 9-19 16-44 16-74-10 22-31 35-62 35-49 0-73-33-73-83 0-54 28-83 82-83zm-1 141c31-1 51-18 51-49 0-36-14-67-51-67-34 0-49 23-49 58 0 34 15 58 49 58" id="aW"/><use transform="matrix(0.06172839506172839,0,0,0.06172839506172839,0,0)" xlink:href="#aW" id="m"/><g id="n"><use transform="matrix(0.06172839506172839,0,0,0.06172839506172839,0,0)" xlink:href="#aO"/><use transform="matrix(0.06172839506172839,0,0,0.06172839506172839,12.345679012345679,0)" xlink:href="#aN"/></g><g id="o"><use transform="matrix(0.06172839506172839,0,0,0.06172839506172839,0,0)" xlink:href="#aO"/><use transform="matrix(0.06172839506172839,0,0,0.06172839506172839,12.345679012345679,0)" xlink:href="#aP"/></g><g id="p"><use transform="matrix(0.06172839506172839,0,0,0.06172839506172839,0,0)" xlink:href="#aO"/><use transform="matrix(0.06172839506172839,0,0,0.06172839506172839,10.679012345679013,0)" xlink:href="#aO"/></g><g id="q"><use transform="matrix(0.06172839506172839,0,0,0.06172839506172839,0,0)" xlink:href="#aO"/><use transform="matrix(0.06172839506172839,0,0,0.06172839506172839,12.345679012345679,0)" xlink:href="#aT"/></g><g id="r"><use transform="matrix(0.06172839506172839,0,0,0.06172839506172839,0,0)" xlink:href="#aP"/><use transform="matrix(0.06172839506172839,0,0,0.06172839506172839,12.345679012345679,0)" xlink:href="#aR"/></g><g id="s"><use transform="matrix(0.06172839506172839,0,0,0.06172839506172839,0,0)" xlink:href="#aP"/><use transform="matrix(0.06172839506172839,0,0,0.06172839506172839,12.345679012345679,0)" xlink:href="#aS"/></g><g id="t"><use transform="matrix(0.06172839506172839,0,0,0.06172839506172839,0,0)" xlink:href="#aP"/><use transform="matrix(0.06172839506172839,0,0,0.06172839506172839,12.345679012345679,0)" xlink:href="#aQ"/></g><g id="u"><use transform="matrix(0.06172839506172839,0,0,0.06172839506172839,0,0)" xlink:href="#aO"/><use transform="matrix(0.06172839506172839,0,0,0.06172839506172839,12.345679012345679,0)" xlink:href="#aU"/></g><g id="v"><use transform="matrix(0.06172839506172839,0,0,0.06172839506172839,0,0)" xlink:href="#aO"/><use transform="matrix(0.06172839506172839,0,0,0.06172839506172839,12.345679012345679,0)" xlink:href="#aV"/></g><g id="w"><use transform="matrix(0.06172839506172839,0,0,0.06172839506172839,0,0)" xlink:href="#aO"/><use transform="matrix(0.06172839506172839,0,0,0.06172839506172839,12.345679012345679,0)" xlink:href="#aW"/></g><g id="x"><use transform="matrix(0.06172839506172839,0,0,0.06172839506172839,0,0)" xlink:href="#aP"/><use transform="matrix(0.06172839506172839,0,0,0.06172839506172839,12.345679012345679,0)" xlink:href="#aN"/></g><g id="y"><use transform="matrix(0.06172839506172839,0,0,0.06172839506172839,0,0)" xlink:href="#aP"/><use transform="matrix(0.06172839506172839,0,0,0.06172839506172839,12.345679012345679,0)" xlink:href="#aP"/></g><g id="z"><use transform="matrix(0.06172839506172839,0,0,0.06172839506172839,0,0)" xlink:href="#aP"/><use transform="matrix(0.06172839506172839,0,0,0.06172839506172839,12.345679012345679,0)" xlink:href="#aO"/></g><path fill="#333" d="M101-251c68 0 84 54 84 127C185-50 166 4 99 4S15-52 14-124c-1-75 17-127 87-127zm-1 216c37-5 36-46 36-89s4-89-36-89c-39 0-36 45-36 89 0 43-3 85 36 89" id="aX"/><use transform="matrix(0.04938271604938272,0,0,0.04938271604938272,0,0)" xlink:href="#aX" id="A"/><path fill="#333" d="M23 0v-37h61v-169l-59 37v-38l62-41h46v211h57V0H23" id="aY"/><use transform="matrix(0.04938271604938272,0,0,0.04938271604938272,0,0)" xlink:href="#aY" id="B"/><path fill="#333" d="M182-182c0 78-84 86-111 141h115V0H12c-6-101 99-100 120-180 1-22-12-31-33-32-23 0-32 14-35 34l-49-3c5-45 32-70 84-70 51 0 83 22 83 69" id="aZ"/><use transform="matrix(0.04938271604938272,0,0,0.04938271604938272,0,0)" xlink:href="#aZ" id="C"/><path fill="#333" d="M128-127c34 4 56 21 59 58 7 91-148 94-172 28-4-9-6-17-7-26l51-5c1 24 16 35 40 36 23 0 39-12 38-36-1-31-31-36-65-34v-40c32 2 59-3 59-33 0-20-13-33-34-33s-33 13-35 32l-50-3c6-44 37-68 86-68 50 0 83 20 83 66 0 35-22 52-53 58" id="ba"/><use transform="matrix(0.04938271604938272,0,0,0.04938271604938272,0,0)" xlink:href="#ba" id="D"/><path fill="#333" d="M165-50V0h-47v-50H5v-38l105-160h55v161h33v37h-33zm-47-37l2-116L46-87h72" id="bb"/><use transform="matrix(0.04938271604938272,0,0,0.04938271604938272,0,0)" xlink:href="#bb" id="E"/><path fill="#333" d="M139-81c0-46-55-55-73-27H18l9-140h149v37H72l-4 63c44-38 133-4 122 66C201 21 21 35 11-62l49-4c5 18 15 30 39 30 26 0 40-18 40-45" id="bc"/><use transform="matrix(0.04938271604938272,0,0,0.04938271604938272,0,0)" xlink:href="#bc" id="F"/><path fill="#333" d="M115-159c48 0 72 30 72 78 0 54-30 85-83 85-64 0-91-50-91-122 0-98 58-163 141-120 15 8 21 24 27 44l-47 6c-5-31-48-31-61-4-7 14-11 33-11 60 9-17 28-27 53-27zM102-35c24 0 36-20 36-45s-11-43-37-43c-23 0-36 14-36 38 0 27 11 50 37 50" id="bd"/><use transform="matrix(0.04938271604938272,0,0,0.04938271604938272,0,0)" xlink:href="#bd" id="G"/><path fill="#333" d="M52 0c1-96 47-148 87-207H15v-41h169v40c-36 62-79 113-81 208H52" id="be"/><use transform="matrix(0.04938271604938272,0,0,0.04938271604938272,0,0)" xlink:href="#be" id="H"/><path fill="#333" d="M138-131c27 9 52 24 51 61 0 53-36 74-89 74S11-19 11-69c0-35 22-54 51-61-78-25-46-121 38-121 51 0 83 19 83 66 0 30-18 49-45 54zm-38-16c24 0 32-13 32-36 1-23-11-34-32-34-22 0-33 12-32 34 0 22 9 36 32 36zm1 116c27 0 37-17 37-43 0-25-13-39-39-39-24 0-37 15-37 40 0 27 11 42 39 42" id="bf"/><use transform="matrix(0.04938271604938272,0,0,0.04938271604938272,0,0)" xlink:href="#bf" id="I"/><path fill="#333" d="M99-251c69 0 84 53 88 123 5 99-61 162-144 118-15-8-21-25-26-45l46-6c4 31 50 33 63 7 7-15 12-36 12-60-9 18-29 28-54 28-48 0-72-32-72-82 0-55 31-83 87-83zm-1 128c24 0 37-16 37-39 0-27-10-51-37-51-25 0-35 19-35 45 0 25 10 45 35 45" id="bg"/><use transform="matrix(0.04938271604938272,0,0,0.04938271604938272,0,0)" xlink:href="#bg" id="J"/><g id="K"><use transform="matrix(0.04938271604938272,0,0,0.04938271604938272,0,0)" xlink:href="#aY"/><use transform="matrix(0.04938271604938272,0,0,0.04938271604938272,8.88888888888889,0)" xlink:href="#aY"/></g><g id="L"><use transform="matrix(0.04938271604938272,0,0,0.04938271604938272,0,0)" xlink:href="#aY"/><use transform="matrix(0.04938271604938272,0,0,0.04938271604938272,9.876543209876544,0)" xlink:href="#aZ"/></g><g id="M"><use transform="matrix(0.04938271604938272,0,0,0.04938271604938272,0,0)" xlink:href="#aY"/><use transform="matrix(0.04938271604938272,0,0,0.04938271604938272,9.876543209876544,0)" xlink:href="#ba"/></g><g id="N"><use transform="matrix(0.04938271604938272,0,0,0.04938271604938272,0,0)" xlink:href="#aY"/><use transform="matrix(0.04938271604938272,0,0,0.04938271604938272,9.876543209876544,0)" xlink:href="#bb"/></g><g id="O"><use transform="matrix(0.04938271604938272,0,0,0.04938271604938272,0,0)" xlink:href="#aY"/><use transform="matrix(0.04938271604938272,0,0,0.04938271604938272,9.876543209876544,0)" xlink:href="#bc"/></g><g id="P"><use transform="matrix(0.04938271604938272,0,0,0.04938271604938272,0,0)" xlink:href="#aY"/><use transform="matrix(0.04938271604938272,0,0,0.04938271604938272,9.876543209876544,0)" xlink:href="#bd"/></g><g id="Q"><use transform="matrix(0.04938271604938272,0,0,0.04938271604938272,0,0)" xlink:href="#aY"/><use transform="matrix(0.04938271604938272,0,0,0.04938271604938272,9.876543209876544,0)" xlink:href="#be"/></g><g id="R"><use transform="matrix(0.04938271604938272,0,0,0.04938271604938272,0,0)" xlink:href="#aY"/><use transform="matrix(0.04938271604938272,0,0,0.04938271604938272,9.876543209876544,0)" xlink:href="#bf"/></g><g id="S"><use transform="matrix(0.04938271604938272,0,0,0.04938271604938272,0,0)" xlink:href="#aY"/><use transform="matrix(0.04938271604938272,0,0,0.04938271604938272,9.876543209876544,0)" xlink:href="#bg"/></g><g id="T"><use transform="matrix(0.04938271604938272,0,0,0.04938271604938272,0,0)" xlink:href="#aZ"/><use transform="matrix(0.04938271604938272,0,0,0.04938271604938272,9.876543209876544,0)" xlink:href="#aX"/></g><g id="U"><use transform="matrix(0.04938271604938272,0,0,0.04938271604938272,0,0)" xlink:href="#aZ"/><use transform="matrix(0.04938271604938272,0,0,0.04938271604938272,9.876543209876544,0)" xlink:href="#aY"/></g><g id="V"><use transform="matrix(0.04938271604938272,0,0,0.04938271604938272,0,0)" xlink:href="#aZ"/><use transform="matrix(0.04938271604938272,0,0,0.04938271604938272,9.876543209876544,0)" xlink:href="#aZ"/></g><g id="W"><use transform="matrix(0.04938271604938272,0,0,0.04938271604938272,0,0)" xlink:href="#aZ"/><use transform="matrix(0.04938271604938272,0,0,0.04938271604938272,9.876543209876544,0)" xlink:href="#ba"/></g><g id="X"><use transform="matrix(0.04938271604938272,0,0,0.04938271604938272,0,0)" xlink:href="#aZ"/><use transform="matrix(0.04938271604938272,0,0,0.04938271604938272,9.876543209876544,0)" xlink:href="#bb"/></g><g id="Y"><use transform="matrix(0.04938271604938272,0,0,0.04938271604938272,0,0)" xlink:href="#ba"/><use transform="matrix(0.04938271604938272,0,0,0.04938271604938272,9.876543209876544,0)" xlink:href="#bd"/></g><g id="Z"><use transform="matrix(0.04938271604938272,0,0,0.04938271604938272,0,0)" xlink:href="#ba"/><use transform="matrix(0.04938271604938272,0,0,0.04938271604938272,9.876543209876544,0)" xlink:href="#be"/></g><g id="aa"><use transform="matrix(0.04938271604938272,0,0,0.04938271604938272,0,0)" xlink:href="#ba"/><use transform="matrix(0.04938271604938272,0,0,0.04938271604938272,9.876543209876544,0)" xlink:href="#bf"/></g><g id="ab"><use transform="matrix(0.04938271604938272,0,0,0.04938271604938272,0,0)" xlink:href="#ba"/><use transform="matrix(0.04938271604938272,0,0,0.04938271604938272,9.876543209876544,0)" xlink:href="#bg"/></g><g id="ac"><use transform="matrix(0.04938271604938272,0,0,0.04938271604938272,0,0)" xlink:href="#bb"/><use transform="matrix(0.04938271604938272,0,0,0.04938271604938272,9.876543209876544,0)" xlink:href="#aX"/></g><g id="ad"><use transform="matrix(0.04938271604938272,0,0,0.04938271604938272,0,0)" xlink:href="#bb"/><use transform="matrix(0.04938271604938272,0,0,0.04938271604938272,9.876543209876544,0)" xlink:href="#aY"/></g><g id="ae"><use transform="matrix(0.04938271604938272,0,0,0.04938271604938272,0,0)" xlink:href="#bb"/><use transform="matrix(0.04938271604938272,0,0,0.04938271604938272,9.876543209876544,0)" xlink:href="#aZ"/></g><g id="af"><use transform="matrix(0.04938271604938272,0,0,0.04938271604938272,0,0)" xlink:href="#bb"/><use transform="matrix(0.04938271604938272,0,0,0.04938271604938272,9.876543209876544,0)" xlink:href="#ba"/></g><g id="ag"><use transform="matrix(0.04938271604938272,0,0,0.04938271604938272,0,0)" xlink:href="#bb"/><use transform="matrix(0.04938271604938272,0,0,0.04938271604938272,9.876543209876544,0)" xlink:href="#bb"/></g><g id="ah"><use transform="matrix(0.04938271604938272,0,0,0.04938271604938272,0,0)" xlink:href="#bb"/><use transform="matrix(0.04938271604938272,0,0,0.04938271604938272,9.876543209876544,0)" xlink:href="#bc"/></g><g id="ai"><use transform="matrix(0.04938271604938272,0,0,0.04938271604938272,0,0)" xlink:href="#bb"/><use transform="matrix(0.04938271604938272,0,0,0.04938271604938272,9.876543209876544,0)" xlink:href="#bd"/></g><g id="aj"><use transform="matrix(0.04938271604938272,0,0,0.04938271604938272,0,0)" xlink:href="#bb"/><use transform="matrix(0.04938271604938272,0,0,0.04938271604938272,9.876543209876544,0)" xlink:href="#be"/></g><g id="ak"><use transform="matrix(0.04938271604938272,0,0,0.04938271604938272,0,0)" xlink:href="#bb"/><use transform="matrix(0.04938271604938272,0,0,0.04938271604938272,9.876543209876544,0)" xlink:href="#bf"/></g><g id="al"><use transform="matrix(0.04938271604938272,0,0,0.04938271604938272,0,0)" xlink:href="#bb"/><use transform="matrix(0.04938271604938272,0,0,0.04938271604938272,9.876543209876544,0)" xlink:href="#bg"/></g><g id="am"><use transform="matrix(0.04938271604938272,0,0,0.04938271604938272,0,0)" xlink:href="#bc"/><use transform="matrix(0.04938271604938272,0,0,0.04938271604938272,9.876543209876544,0)" xlink:href="#aX"/></g><g id="an"><use transform="matrix(0.04938271604938272,0,0,0.04938271604938272,0,0)" xlink:href="#bc"/><use transform="matrix(0.04938271604938272,0,0,0.04938271604938272,9.876543209876544,0)" xlink:href="#aY"/></g><g id="ao"><use transform="matrix(0.04938271604938272,0,0,0.04938271604938272,0,0)" xlink:href="#bc"/><use transform="matrix(0.04938271604938272,0,0,0.04938271604938272,9.876543209876544,0)" xlink:href="#aZ"/></g><g id="ap"><use transform="matrix(0.04938271604938272,0,0,0.04938271604938272,0,0)" xlink:href="#bc"/><use transform="matrix(0.04938271604938272,0,0,0.04938271604938272,9.876543209876544,0)" xlink:href="#ba"/></g><g id="aq"><use transform="matrix(0.04938271604938272,0,0,0.04938271604938272,0,0)" xlink:href="#bc"/><use transform="matrix(0.04938271604938272,0,0,0.04938271604938272,9.876543209876544,0)" xlink:href="#bb"/></g><g id="ar"><use transform="matrix(0.04938271604938272,0,0,0.04938271604938272,0,0)" xlink:href="#aZ"/><use transform="matrix(0.04938271604938272,0,0,0.04938271604938272,9.876543209876544,0)" xlink:href="#bc"/></g><g id="as"><use transform="matrix(0.04938271604938272,0,0,0.04938271604938272,0,0)" xlink:href="#aZ"/><use transform="matrix(0.04938271604938272,0,0,0.04938271604938272,9.876543209876544,0)" xlink:href="#bd"/></g><g id="at"><use transform="matrix(0.04938271604938272,0,0,0.04938271604938272,0,0)" xlink:href="#aZ"/><use transform="matrix(0.04938271604938272,0,0,0.04938271604938272,9.876543209876544,0)" xlink:href="#be"/></g><g id="au"><use transform="matrix(0.04938271604938272,0,0,0.04938271604938272,0,0)" xlink:href="#aZ"/><use transform="matrix(0.04938271604938272,0,0,0.04938271604938272,9.876543209876544,0)" xlink:href="#bf"/></g><g id="av"><use transform="matrix(0.04938271604938272,0,0,0.04938271604938272,0,0)" xlink:href="#aZ"/><use transform="matrix(0.04938271604938272,0,0,0.04938271604938272,9.876543209876544,0)" xlink:href="#bg"/></g><g id="aw"><use transform="matrix(0.04938271604938272,0,0,0.04938271604938272,0,0)" xlink:href="#ba"/><use transform="matrix(0.04938271604938272,0,0,0.04938271604938272,9.876543209876544,0)" xlink:href="#aX"/></g><g id="ax"><use transform="matrix(0.04938271604938272,0,0,0.04938271604938272,0,0)" xlink:href="#ba"/><use transform="matrix(0.04938271604938272,0,0,0.04938271604938272,9.876543209876544,0)" xlink:href="#aY"/></g><g id="ay"><use transform="matrix(0.04938271604938272,0,0,0.04938271604938272,0,0)" xlink:href="#ba"/><use transform="matrix(0.04938271604938272,0,0,0.04938271604938272,9.876543209876544,0)" xlink:href="#aZ"/></g><g id="az"><use transform="matrix(0.04938271604938272,0,0,0.04938271604938272,0,0)" xlink:href="#ba"/><use transform="matrix(0.04938271604938272,0,0,0.04938271604938272,9.876543209876544,0)" xlink:href="#ba"/></g><g id="aA"><use transform="matrix(0.04938271604938272,0,0,0.04938271604938272,0,0)" xlink:href="#ba"/><use transform="matrix(0.04938271604938272,0,0,0.04938271604938272,9.876543209876544,0)" xlink:href="#bb"/></g><g id="aB"><use transform="matrix(0.04938271604938272,0,0,0.04938271604938272,0,0)" xlink:href="#bc"/><use transform="matrix(0.04938271604938272,0,0,0.04938271604938272,9.876543209876544,0)" xlink:href="#bc"/></g><g id="aC"><use transform="matrix(0.04938271604938272,0,0,0.04938271604938272,0,0)" xlink:href="#bc"/><use transform="matrix(0.04938271604938272,0,0,0.04938271604938272,9.876543209876544,0)" xlink:href="#bd"/></g><g id="aD"><use transform="matrix(0.04938271604938272,0,0,0.04938271604938272,0,0)" xlink:href="#bc"/><use transform="matrix(0.04938271604938272,0,0,0.04938271604938272,9.876543209876544,0)" xlink:href="#be"/></g><g id="aE"><use transform="matrix(0.04938271604938272,0,0,0.04938271604938272,0,0)" xlink:href="#bc"/><use transform="matrix(0.04938271604938272,0,0,0.04938271604938272,9.876543209876544,0)" xlink:href="#bf"/></g><g id="aF"><use transform="matrix(0.04938271604938272,0,0,0.04938271604938272,0,0)" xlink:href="#bc"/><use transform="matrix(0.04938271604938272,0,0,0.04938271604938272,9.876543209876544,0)" xlink:href="#bg"/></g><g id="aG"><use transform="matrix(0.04938271604938272,0,0,0.04938271604938272,0,0)" xlink:href="#bd"/><use transform="matrix(0.04938271604938272,0,0,0.04938271604938272,9.876543209876544,0)" xlink:href="#aX"/></g><g id="aH"><use transform="matrix(0.04938271604938272,0,0,0.04938271604938272,0,0)" xlink:href="#bd"/><use transform="matrix(0.04938271604938272,0,0,0.04938271604938272,9.876543209876544,0)" xlink:href="#aY"/></g><g id="aI"><use transform="matrix(0.04938271604938272,0,0,0.04938271604938272,0,0)" xlink:href="#bd"/><use transform="matrix(0.04938271604938272,0,0,0.04938271604938272,9.876543209876544,0)" xlink:href="#aZ"/></g><g id="aJ"><use transform="matrix(0.04938271604938272,0,0,0.04938271604938272,0,0)" xlink:href="#bd"/><use transform="matrix(0.04938271604938272,0,0,0.04938271604938272,9.876543209876544,0)" xlink:href="#ba"/></g><g id="aK"><use transform="matrix(0.04938271604938272,0,0,0.04938271604938272,0,0)" xlink:href="#bd"/><use transform="matrix(0.04938271604938272,0,0,0.04938271604938272,9.876543209876544,0)" xlink:href="#bb"/></g><g id="aL"><use transform="matrix(0.04938271604938272,0,0,0.04938271604938272,0,0)" xlink:href="#aY"/><use transform="matrix(0.04938271604938272,0,0,0.04938271604938272,9.876543209876544,0)" xlink:href="#aX"/></g><g id="aM"><use transform="matrix(0.04938271604938272,0,0,0.04938271604938272,0,0)" xlink:href="#ba"/><use transform="matrix(0.04938271604938272,0,0,0.04938271604938272,9.876543209876544,0)" xlink:href="#bc"/></g></defs></g></svg>